<svg width="97" height="90" viewBox="0 0 97 90" fill="none" xmlns="http://www.w3.org/2000/svg">
<path d="M48.0349 84.5125C46.7414 84.514 45.4694 84.2055 44.3422 83.6169L12.8189 67.0907C11.6626 66.4831 10.7006 65.6022 10.0309 64.5375C9.3612 63.4728 9.00774 62.2625 9.00655 61.0299V28.0791C9.00773 26.8465 9.36115 25.6363 10.0308 24.5717C10.7004 23.507 11.6624 22.6261 12.8186 22.0186L44.3415 5.49203C45.4694 4.90476 46.7412 4.59631 48.0347 4.59631C49.3282 4.59631 50.6 4.90476 51.728 5.49203L83.2509 22.0183C84.4072 22.6258 85.3692 23.5068 86.0389 24.5714C86.7087 25.6361 87.0621 26.8464 87.0633 28.0791V61.0299C87.0621 62.2624 86.7087 63.4726 86.0391 64.5373C85.3694 65.6019 84.4075 66.4828 83.2513 67.0903L51.7284 83.6169C50.601 84.2056 49.3287 84.5141 48.0349 84.5125V84.5125ZM18.0131 60.2178L48.0349 75.957L78.0568 60.2181V28.8908L48.0349 13.1516L18.0131 28.8908V60.2178Z" fill="#071E3D"/>
<path d="M68.4818 55.446L48.3191 65.9403C48.3183 65.9407 48.3175 65.9411 48.3168 65.9415C48.2457 65.9777 48.1477 66.0049 48.0349 66.0049C47.9221 66.0049 47.8242 65.9777 47.7531 65.9415C47.7523 65.9411 47.7516 65.9407 47.7508 65.9403L27.5882 55.446C27.5879 55.4458 27.5875 55.4457 27.5872 55.4455C27.5535 55.4278 27.5313 55.4108 27.5175 55.3983V34.6016C27.5313 34.589 27.5536 34.572 27.5874 34.5543C27.5877 34.5542 27.5879 34.5541 27.5881 34.554L47.7509 24.0595C47.7517 24.0591 47.7524 24.0587 47.7532 24.0584C47.8242 24.0221 47.9222 23.995 48.0349 23.995C48.1477 23.995 48.2456 24.0221 48.3167 24.0584C48.3174 24.0587 48.3182 24.0591 48.319 24.0595L68.4817 34.5539C68.4819 34.554 68.4822 34.5542 68.4824 34.5543C68.5163 34.572 68.5386 34.5891 68.5524 34.6016V55.3984C68.5386 55.4108 68.5164 55.4278 68.4828 55.4454C68.4825 55.4456 68.4821 55.4458 68.4818 55.446Z" fill="#ABE7EF" stroke="#0C97F2" stroke-width="7"/>
</svg>
