<svg width="220" height="90" viewBox="0 0 220 90" fill="none" xmlns="http://www.w3.org/2000/svg">
<rect width="220" height="89.1089" rx="10" fill="white"/>
<path d="M106.893 44.522V58.297H104.043V56.672C103.593 57.2387 103.001 57.6887 102.268 58.022C101.551 58.3387 100.785 58.497 99.968 58.497C98.8846 58.497 97.9096 58.272 97.043 57.822C96.193 57.372 95.518 56.7053 95.018 55.822C94.5346 54.9387 94.293 53.872 94.293 52.622V44.522H97.118V52.197C97.118 53.4303 97.4263 54.3803 98.043 55.047C98.6596 55.697 99.5013 56.022 100.568 56.022C101.635 56.022 102.476 55.697 103.093 55.047C103.726 54.3803 104.043 53.4303 104.043 52.197V44.522H106.893ZM116.328 40.922C118.178 40.922 119.795 41.2803 121.178 41.997C122.578 42.697 123.653 43.7137 124.403 45.047C125.17 46.3637 125.553 47.9053 125.553 49.672C125.553 51.4387 125.17 52.972 124.403 54.272C123.653 55.572 122.578 56.572 121.178 57.272C119.795 57.9553 118.178 58.297 116.328 58.297H110.653V40.922H116.328ZM116.328 55.972C118.362 55.972 119.92 55.422 121.003 54.322C122.087 53.222 122.628 51.672 122.628 49.672C122.628 47.6553 122.087 46.0803 121.003 44.947C119.92 43.8137 118.362 43.247 116.328 43.247H113.503V55.972H116.328ZM141.003 51.072C141.003 51.5887 140.97 52.0553 140.903 52.472H130.378C130.461 53.572 130.87 54.4553 131.603 55.122C132.336 55.7887 133.236 56.122 134.303 56.122C135.836 56.122 136.92 55.4803 137.553 54.197H140.628C140.211 55.4637 139.453 56.5053 138.353 57.322C137.27 58.122 135.92 58.522 134.303 58.522C132.986 58.522 131.803 58.2303 130.753 57.647C129.72 57.047 128.903 56.2137 128.303 55.147C127.72 54.0637 127.428 52.8137 127.428 51.397C127.428 49.9803 127.711 48.7387 128.278 47.672C128.861 46.5887 129.67 45.7553 130.703 45.172C131.753 44.5887 132.953 44.297 134.303 44.297C135.603 44.297 136.761 44.5803 137.778 45.147C138.795 45.7137 139.586 46.5137 140.153 47.547C140.72 48.5637 141.003 49.7387 141.003 51.072ZM138.028 50.172C138.011 49.122 137.636 48.2803 136.903 47.647C136.17 47.0137 135.261 46.697 134.178 46.697C133.195 46.697 132.353 47.0137 131.653 47.647C130.953 48.2637 130.536 49.1053 130.403 50.172H138.028ZM149.133 55.747L153.033 44.522H156.058L150.808 58.297H147.408L142.183 44.522H145.233L149.133 55.747ZM167.512 49.372C168.445 49.5387 169.237 50.0303 169.887 50.847C170.537 51.6637 170.862 52.5887 170.862 53.622C170.862 54.5053 170.629 55.3053 170.162 56.022C169.712 56.722 169.054 57.2803 168.187 57.697C167.32 58.097 166.312 58.297 165.162 58.297H158.212V40.922H164.837C166.02 40.922 167.037 41.122 167.887 41.522C168.737 41.922 169.379 42.4637 169.812 43.147C170.245 43.8137 170.462 44.5637 170.462 45.397C170.462 46.397 170.195 47.2303 169.662 47.897C169.129 48.5637 168.412 49.0553 167.512 49.372ZM161.062 48.222H164.587C165.52 48.222 166.245 48.0137 166.762 47.597C167.295 47.1637 167.562 46.547 167.562 45.747C167.562 44.9637 167.295 44.3553 166.762 43.922C166.245 43.472 165.52 43.247 164.587 43.247H161.062V48.222ZM164.912 55.972C165.879 55.972 166.637 55.7387 167.187 55.272C167.737 54.8053 168.012 54.1553 168.012 53.322C168.012 52.472 167.72 51.797 167.137 51.297C166.554 50.797 165.779 50.547 164.812 50.547H161.062V55.972H164.912ZM176.809 39.797V58.297H173.959V39.797H176.809ZM186.526 58.522C185.226 58.522 184.051 58.2303 183.001 57.647C181.951 57.047 181.126 56.2137 180.526 55.147C179.926 54.0637 179.626 52.8137 179.626 51.397C179.626 49.997 179.934 48.7553 180.551 47.672C181.167 46.5887 182.009 45.7553 183.076 45.172C184.142 44.5887 185.334 44.297 186.651 44.297C187.967 44.297 189.159 44.5887 190.226 45.172C191.292 45.7553 192.134 46.5887 192.751 47.672C193.367 48.7553 193.676 49.997 193.676 51.397C193.676 52.797 193.359 54.0387 192.726 55.122C192.092 56.2053 191.226 57.047 190.126 57.647C189.042 58.2303 187.842 58.522 186.526 58.522ZM186.526 56.047C187.259 56.047 187.942 55.872 188.576 55.522C189.226 55.172 189.751 54.647 190.151 53.947C190.551 53.247 190.751 52.397 190.751 51.397C190.751 50.397 190.559 49.5553 190.176 48.872C189.792 48.172 189.284 47.647 188.651 47.297C188.017 46.947 187.334 46.772 186.601 46.772C185.867 46.772 185.184 46.947 184.551 47.297C183.934 47.647 183.442 48.172 183.076 48.872C182.709 49.5553 182.526 50.397 182.526 51.397C182.526 52.8803 182.901 54.0303 183.651 54.847C184.417 55.647 185.376 56.047 186.526 56.047ZM202.043 44.297C203.11 44.297 204.051 44.5137 204.868 44.947C205.701 45.3637 206.351 45.8887 206.818 46.522V44.522H209.693V58.522C209.693 59.7887 209.426 60.9137 208.893 61.897C208.36 62.897 207.585 63.6803 206.568 64.247C205.568 64.8137 204.368 65.097 202.968 65.097C201.101 65.097 199.551 64.6553 198.318 63.772C197.085 62.9053 196.385 61.722 196.218 60.222H199.043C199.26 60.9387 199.718 61.5137 200.418 61.947C201.135 62.397 201.985 62.622 202.968 62.622C204.118 62.622 205.043 62.272 205.743 61.572C206.46 60.872 206.818 59.8553 206.818 58.522V56.222C206.335 56.872 205.676 57.422 204.843 57.872C204.026 58.3053 203.093 58.522 202.043 58.522C200.843 58.522 199.743 58.222 198.743 57.622C197.76 57.0053 196.976 56.1553 196.393 55.072C195.826 53.972 195.543 52.7303 195.543 51.347C195.543 49.9637 195.826 48.7387 196.393 47.672C196.976 46.6053 197.76 45.7803 198.743 45.197C199.743 44.597 200.843 44.297 202.043 44.297ZM206.818 51.397C206.818 50.447 206.618 49.622 206.218 48.922C205.835 48.222 205.326 47.6887 204.693 47.322C204.06 46.9553 203.376 46.772 202.643 46.772C201.91 46.772 201.226 46.9553 200.593 47.322C199.96 47.672 199.443 48.197 199.043 48.897C198.66 49.5803 198.468 50.397 198.468 51.347C198.468 52.297 198.66 53.1303 199.043 53.847C199.443 54.5637 199.96 55.1137 200.593 55.497C201.243 55.8637 201.926 56.047 202.643 56.047C203.376 56.047 204.06 55.8637 204.693 55.497C205.326 55.1303 205.835 54.597 206.218 53.897C206.618 53.1803 206.818 52.347 206.818 51.397Z" fill="#ABE7EF"/>
<path d="M105.934 43.6309V57.4059H103.084V55.7809C102.634 56.3476 102.042 56.7976 101.309 57.1309C100.592 57.4476 99.8254 57.6059 99.0087 57.6059C97.9254 57.6059 96.9504 57.3809 96.0837 56.9309C95.2337 56.4809 94.5587 55.8142 94.0587 54.9309C93.5754 54.0476 93.3337 52.9809 93.3337 51.7309V43.6309H96.1587V51.3059C96.1587 52.5392 96.4671 53.4892 97.0837 54.1559C97.7004 54.8059 98.5421 55.1309 99.6087 55.1309C100.675 55.1309 101.517 54.8059 102.134 54.1559C102.767 53.4892 103.084 52.5392 103.084 51.3059V43.6309H105.934ZM115.369 40.0309C117.219 40.0309 118.836 40.3892 120.219 41.1059C121.619 41.8059 122.694 42.8225 123.444 44.1559C124.211 45.4725 124.594 47.0142 124.594 48.7809C124.594 50.5476 124.211 52.0809 123.444 53.3809C122.694 54.6809 121.619 55.6809 120.219 56.3809C118.836 57.0642 117.219 57.4059 115.369 57.4059H109.694V40.0309H115.369ZM115.369 55.0809C117.402 55.0809 118.961 54.5309 120.044 53.4309C121.127 52.3309 121.669 50.7809 121.669 48.7809C121.669 46.7642 121.127 45.1892 120.044 44.0559C118.961 42.9225 117.402 42.3559 115.369 42.3559H112.544V55.0809H115.369ZM140.044 50.1809C140.044 50.6976 140.01 51.1642 139.944 51.5809H129.419C129.502 52.6809 129.91 53.5642 130.644 54.2309C131.377 54.8976 132.277 55.2309 133.344 55.2309C134.877 55.2309 135.96 54.5892 136.594 53.3059H139.669C139.252 54.5726 138.494 55.6142 137.394 56.4309C136.31 57.2309 134.96 57.6309 133.344 57.6309C132.027 57.6309 130.844 57.3392 129.794 56.7559C128.76 56.1559 127.944 55.3226 127.344 54.2559C126.76 53.1726 126.469 51.9226 126.469 50.5059C126.469 49.0892 126.752 47.8475 127.319 46.7809C127.902 45.6976 128.71 44.8642 129.744 44.2809C130.794 43.6976 131.994 43.4059 133.344 43.4059C134.644 43.4059 135.802 43.6892 136.819 44.2559C137.835 44.8226 138.627 45.6226 139.194 46.6559C139.76 47.6726 140.044 48.8476 140.044 50.1809ZM137.069 49.2809C137.052 48.2309 136.677 47.3892 135.944 46.7559C135.21 46.1225 134.302 45.8059 133.219 45.8059C132.235 45.8059 131.394 46.1225 130.694 46.7559C129.994 47.3725 129.577 48.2142 129.444 49.2809H137.069ZM148.173 54.8559L152.073 43.6309H155.098L149.848 57.4059H146.448L141.223 43.6309H144.273L148.173 54.8559ZM166.553 48.4809C167.486 48.6476 168.278 49.1392 168.928 49.9559C169.578 50.7726 169.903 51.6976 169.903 52.7309C169.903 53.6142 169.669 54.4142 169.203 55.1309C168.753 55.8309 168.094 56.3892 167.228 56.8059C166.361 57.2059 165.353 57.4059 164.203 57.4059H157.253V40.0309H163.878C165.061 40.0309 166.078 40.2309 166.928 40.6309C167.778 41.0309 168.419 41.5726 168.853 42.2559C169.286 42.9225 169.503 43.6725 169.503 44.5059C169.503 45.5059 169.236 46.3392 168.703 47.0059C168.169 47.6726 167.453 48.1642 166.553 48.4809ZM160.103 47.3309H163.628C164.561 47.3309 165.286 47.1225 165.803 46.7059C166.336 46.2725 166.603 45.6559 166.603 44.8559C166.603 44.0725 166.336 43.4642 165.803 43.0309C165.286 42.5809 164.561 42.3559 163.628 42.3559H160.103V47.3309ZM163.953 55.0809C164.919 55.0809 165.678 54.8476 166.228 54.3809C166.778 53.9142 167.053 53.2642 167.053 52.4309C167.053 51.5809 166.761 50.9059 166.178 50.4059C165.594 49.9059 164.819 49.6559 163.853 49.6559H160.103V55.0809H163.953ZM175.85 38.9059V57.4059H173V38.9059H175.85ZM185.567 57.6309C184.267 57.6309 183.092 57.3392 182.042 56.7559C180.992 56.1559 180.167 55.3226 179.567 54.2559C178.967 53.1726 178.667 51.9226 178.667 50.5059C178.667 49.1059 178.975 47.8642 179.592 46.7809C180.208 45.6976 181.05 44.8642 182.117 44.2809C183.183 43.6976 184.375 43.4059 185.692 43.4059C187.008 43.4059 188.2 43.6976 189.267 44.2809C190.333 44.8642 191.175 45.6976 191.792 46.7809C192.408 47.8642 192.717 49.1059 192.717 50.5059C192.717 51.9059 192.4 53.1476 191.767 54.2309C191.133 55.3142 190.267 56.1559 189.167 56.7559C188.083 57.3392 186.883 57.6309 185.567 57.6309ZM185.567 55.1559C186.3 55.1559 186.983 54.9809 187.617 54.6309C188.267 54.2809 188.792 53.7559 189.192 53.0559C189.592 52.3559 189.792 51.5059 189.792 50.5059C189.792 49.5059 189.6 48.6642 189.217 47.9809C188.833 47.2809 188.325 46.7559 187.692 46.4059C187.058 46.0559 186.375 45.8809 185.642 45.8809C184.908 45.8809 184.225 46.0559 183.592 46.4059C182.975 46.7559 182.483 47.2809 182.117 47.9809C181.75 48.6642 181.567 49.5059 181.567 50.5059C181.567 51.9892 181.942 53.1392 182.692 53.9559C183.458 54.7559 184.417 55.1559 185.567 55.1559ZM201.084 43.4059C202.151 43.4059 203.092 43.6226 203.909 44.0559C204.742 44.4726 205.392 44.9976 205.859 45.6309V43.6309H208.734V57.6309C208.734 58.8976 208.467 60.0226 207.934 61.0059C207.401 62.0059 206.626 62.7892 205.609 63.3559C204.609 63.9226 203.409 64.2059 202.009 64.2059C200.142 64.2059 198.592 63.7642 197.359 62.8809C196.126 62.0142 195.426 60.8309 195.259 59.3309H198.084C198.301 60.0476 198.759 60.6226 199.459 61.0559C200.176 61.5059 201.026 61.7309 202.009 61.7309C203.159 61.7309 204.084 61.3809 204.784 60.6809C205.501 59.9809 205.859 58.9642 205.859 57.6309V55.3309C205.376 55.9809 204.717 56.5309 203.884 56.9809C203.067 57.4142 202.134 57.6309 201.084 57.6309C199.884 57.6309 198.784 57.3309 197.784 56.7309C196.801 56.1142 196.017 55.2642 195.434 54.1809C194.867 53.0809 194.584 51.8392 194.584 50.4559C194.584 49.0725 194.867 47.8475 195.434 46.7809C196.017 45.7142 196.801 44.8892 197.784 44.3059C198.784 43.7059 199.884 43.4059 201.084 43.4059ZM205.859 50.5059C205.859 49.5559 205.659 48.7309 205.259 48.0309C204.876 47.3309 204.367 46.7975 203.734 46.4309C203.101 46.0642 202.417 45.8809 201.684 45.8809C200.951 45.8809 200.267 46.0642 199.634 46.4309C199.001 46.7809 198.484 47.3059 198.084 48.0059C197.701 48.6892 197.509 49.5059 197.509 50.4559C197.509 51.4059 197.701 52.2392 198.084 52.9559C198.484 53.6726 199.001 54.2226 199.634 54.6059C200.284 54.9726 200.967 55.1559 201.684 55.1559C202.417 55.1559 203.101 54.9726 203.734 54.6059C204.367 54.2392 204.876 53.7059 205.259 53.0059C205.659 52.2892 205.859 51.4559 205.859 50.5059Z" fill="#071E3D"/>
<path d="M48.0349 85.4036C46.7414 85.4051 45.4694 85.0966 44.3422 84.508L12.8189 67.9818C11.6626 67.3743 10.7006 66.4933 10.0309 65.4286C9.36118 64.3639 9.00773 63.1536 9.00653 61.921V28.9702C9.00772 27.7376 9.36113 26.5274 10.0308 25.4628C10.7004 24.3982 11.6623 23.5172 12.8186 22.9097L44.3415 6.38314C45.4694 5.79587 46.7412 5.48743 48.0347 5.48743C49.3282 5.48743 50.6 5.79587 51.728 6.38314L83.2509 22.9094C84.4072 23.5169 85.3692 24.3979 86.0389 25.4625C86.7086 26.5272 87.0621 27.7375 87.0633 28.9702V61.921C87.0621 63.1535 86.7087 64.3638 86.0391 65.4284C85.3694 66.493 84.4075 67.3739 83.2513 67.9814L51.7283 84.508C50.6009 85.0967 49.3287 85.4052 48.0349 85.4036ZM18.0131 61.1089L48.0349 76.8481L78.0567 61.1092V29.7819L48.0349 14.0427L18.0131 29.7819V61.1089Z" fill="#071E3D"/>
<path d="M68.4817 56.3371L48.3191 66.8315C48.3183 66.8318 48.3175 66.8322 48.3168 66.8326C48.2457 66.8689 48.1477 66.896 48.0349 66.896C47.9221 66.896 47.8242 66.8689 47.7531 66.8326C47.7523 66.8322 47.7516 66.8318 47.7508 66.8315L27.5882 56.3371C27.5879 56.337 27.5875 56.3368 27.5872 56.3366C27.5535 56.3189 27.5312 56.3019 27.5175 56.2894V35.4927C27.5313 35.4802 27.5536 35.4632 27.5874 35.4454C27.5876 35.4453 27.5879 35.4452 27.5881 35.4451L47.7509 24.9506C47.7517 24.9503 47.7524 24.9499 47.7532 24.9495C47.8242 24.9133 47.9222 24.8861 48.0349 24.8861C48.1477 24.8861 48.2456 24.9133 48.3167 24.9495C48.3174 24.9499 48.3182 24.9503 48.3189 24.9506L68.4816 35.445C68.4819 35.4452 68.4821 35.4453 68.4824 35.4454C68.5162 35.4632 68.5386 35.4802 68.5524 35.4927V56.2895C68.5386 56.302 68.5164 56.3189 68.4828 56.3365C68.4825 56.3367 68.4821 56.3369 68.4817 56.3371Z" fill="#ABE7EF" stroke="#0C97F2" stroke-width="7"/>
</svg>
