<svg width="229" height="100" viewBox="0 0 229 100" fill="none" xmlns="http://www.w3.org/2000/svg">
<path d="M113.924 48.674V63H110.96V61.31C110.492 61.8993 109.877 62.3673 109.114 62.714C108.369 63.0433 107.571 63.208 106.722 63.208C105.595 63.208 104.581 62.974 103.68 62.506C102.796 62.038 102.094 61.3447 101.574 60.426C101.071 59.5073 100.82 58.398 100.82 57.098V48.674H103.758V56.656C103.758 57.9387 104.079 58.9267 104.72 59.62C105.361 60.296 106.237 60.634 107.346 60.634C108.455 60.634 109.331 60.296 109.972 59.62C110.631 58.9267 110.96 57.9387 110.96 56.656V48.674H113.924ZM123.737 44.93C125.661 44.93 127.342 45.3027 128.781 46.048C130.237 46.776 131.355 47.8333 132.135 49.22C132.932 50.5893 133.331 52.1927 133.331 54.03C133.331 55.8673 132.932 57.462 132.135 58.814C131.355 60.166 130.237 61.206 128.781 61.934C127.342 62.6447 125.661 63 123.737 63H117.835V44.93H123.737ZM123.737 60.582C125.851 60.582 127.472 60.01 128.599 58.866C129.725 57.722 130.289 56.11 130.289 54.03C130.289 51.9327 129.725 50.2947 128.599 49.116C127.472 47.9373 125.851 47.348 123.737 47.348H120.799V60.582H123.737ZM149.398 55.486C149.398 56.0233 149.364 56.5087 149.294 56.942H138.348C138.435 58.086 138.86 59.0047 139.622 59.698C140.385 60.3913 141.321 60.738 142.43 60.738C144.025 60.738 145.152 60.0707 145.81 58.736H149.008C148.575 60.0533 147.786 61.1367 146.642 61.986C145.516 62.818 144.112 63.234 142.43 63.234C141.061 63.234 139.83 62.9307 138.738 62.324C137.664 61.7 136.814 60.8333 136.19 59.724C135.584 58.5973 135.28 57.2973 135.28 55.824C135.28 54.3507 135.575 53.0593 136.164 51.95C136.771 50.8233 137.612 49.9567 138.686 49.35C139.778 48.7433 141.026 48.44 142.43 48.44C143.782 48.44 144.987 48.7347 146.044 49.324C147.102 49.9133 147.925 50.7453 148.514 51.82C149.104 52.8773 149.398 54.0993 149.398 55.486ZM146.304 54.55C146.287 53.458 145.897 52.5827 145.134 51.924C144.372 51.2653 143.427 50.936 142.3 50.936C141.278 50.936 140.402 51.2653 139.674 51.924C138.946 52.5653 138.513 53.4407 138.374 54.55H146.304ZM157.853 60.348L161.909 48.674H165.055L159.595 63H156.059L150.625 48.674H153.797L157.853 60.348ZM176.968 53.718C177.938 53.8913 178.762 54.4027 179.438 55.252C180.114 56.1013 180.452 57.0633 180.452 58.138C180.452 59.0567 180.209 59.8887 179.724 60.634C179.256 61.362 178.571 61.9427 177.67 62.376C176.768 62.792 175.72 63 174.524 63H167.296V44.93H174.186C175.416 44.93 176.474 45.138 177.358 45.554C178.242 45.97 178.909 46.5333 179.36 47.244C179.81 47.9373 180.036 48.7173 180.036 49.584C180.036 50.624 179.758 51.4907 179.204 52.184C178.649 52.8773 177.904 53.3887 176.968 53.718ZM170.26 52.522H173.926C174.896 52.522 175.65 52.3053 176.188 51.872C176.742 51.4213 177.02 50.78 177.02 49.948C177.02 49.1333 176.742 48.5007 176.188 48.05C175.65 47.582 174.896 47.348 173.926 47.348H170.26V52.522ZM174.264 60.582C175.269 60.582 176.058 60.3393 176.63 59.854C177.202 59.3687 177.488 58.6927 177.488 57.826C177.488 56.942 177.184 56.24 176.578 55.72C175.971 55.2 175.165 54.94 174.16 54.94H170.26V60.582H174.264ZM186.637 43.76V63H183.673V43.76H186.637ZM196.742 63.234C195.39 63.234 194.168 62.9307 193.076 62.324C191.984 61.7 191.126 60.8333 190.502 59.724C189.878 58.5973 189.566 57.2973 189.566 55.824C189.566 54.368 189.887 53.0767 190.528 51.95C191.169 50.8233 192.045 49.9567 193.154 49.35C194.263 48.7433 195.503 48.44 196.872 48.44C198.241 48.44 199.481 48.7433 200.59 49.35C201.699 49.9567 202.575 50.8233 203.216 51.95C203.857 53.0767 204.178 54.368 204.178 55.824C204.178 57.28 203.849 58.5713 203.19 59.698C202.531 60.8247 201.63 61.7 200.486 62.324C199.359 62.9307 198.111 63.234 196.742 63.234ZM196.742 60.66C197.505 60.66 198.215 60.478 198.874 60.114C199.55 59.75 200.096 59.204 200.512 58.476C200.928 57.748 201.136 56.864 201.136 55.824C201.136 54.784 200.937 53.9087 200.538 53.198C200.139 52.47 199.611 51.924 198.952 51.56C198.293 51.196 197.583 51.014 196.82 51.014C196.057 51.014 195.347 51.196 194.688 51.56C194.047 51.924 193.535 52.47 193.154 53.198C192.773 53.9087 192.582 54.784 192.582 55.824C192.582 57.3667 192.972 58.5627 193.752 59.412C194.549 60.244 195.546 60.66 196.742 60.66ZM212.88 48.44C213.99 48.44 214.969 48.6653 215.818 49.116C216.685 49.5493 217.361 50.0953 217.846 50.754V48.674H220.836V63.234C220.836 64.5513 220.559 65.7213 220.004 66.744C219.45 67.784 218.644 68.5987 217.586 69.188C216.546 69.7773 215.298 70.072 213.842 70.072C211.901 70.072 210.289 69.6127 209.006 68.694C207.724 67.7927 206.996 66.562 206.822 65.002H209.76C209.986 65.7473 210.462 66.3453 211.19 66.796C211.936 67.264 212.82 67.498 213.842 67.498C215.038 67.498 216 67.134 216.728 66.406C217.474 65.678 217.846 64.6207 217.846 63.234V60.842C217.344 61.518 216.659 62.09 215.792 62.558C214.943 63.0087 213.972 63.234 212.88 63.234C211.632 63.234 210.488 62.922 209.448 62.298C208.426 61.6567 207.611 60.7727 207.004 59.646C206.415 58.502 206.12 57.2107 206.12 55.772C206.12 54.3333 206.415 53.0593 207.004 51.95C207.611 50.8407 208.426 49.9827 209.448 49.376C210.488 48.752 211.632 48.44 212.88 48.44ZM217.846 55.824C217.846 54.836 217.638 53.978 217.222 53.25C216.824 52.522 216.295 51.9673 215.636 51.586C214.978 51.2047 214.267 51.014 213.504 51.014C212.742 51.014 212.031 51.2047 211.372 51.586C210.714 51.95 210.176 52.496 209.76 53.224C209.362 53.9347 209.162 54.784 209.162 55.772C209.162 56.76 209.362 57.6267 209.76 58.372C210.176 59.1173 210.714 59.6893 211.372 60.088C212.048 60.4693 212.759 60.66 213.504 60.66C214.267 60.66 214.978 60.4693 215.636 60.088C216.295 59.7067 216.824 59.152 217.222 58.424C217.638 57.6787 217.846 56.812 217.846 55.824Z" fill="#FF9770" fill-opacity="0.5"/>
<path d="M111.924 46.674V61H108.96V59.31C108.492 59.8993 107.877 60.3673 107.114 60.714C106.369 61.0433 105.571 61.208 104.722 61.208C103.595 61.208 102.581 60.974 101.68 60.506C100.796 60.038 100.094 59.3447 99.574 58.426C99.0713 57.5073 98.82 56.398 98.82 55.098V46.674H101.758V54.656C101.758 55.9387 102.079 56.9267 102.72 57.62C103.361 58.296 104.237 58.634 105.346 58.634C106.455 58.634 107.331 58.296 107.972 57.62C108.631 56.9267 108.96 55.9387 108.96 54.656V46.674H111.924ZM121.737 42.93C123.661 42.93 125.342 43.3027 126.781 44.048C128.237 44.776 129.355 45.8333 130.135 47.22C130.932 48.5893 131.331 50.1927 131.331 52.03C131.331 53.8673 130.932 55.462 130.135 56.814C129.355 58.166 128.237 59.206 126.781 59.934C125.342 60.6447 123.661 61 121.737 61H115.835V42.93H121.737ZM121.737 58.582C123.851 58.582 125.472 58.01 126.599 56.866C127.725 55.722 128.289 54.11 128.289 52.03C128.289 49.9327 127.725 48.2947 126.599 47.116C125.472 45.9373 123.851 45.348 121.737 45.348H118.799V58.582H121.737ZM147.398 53.486C147.398 54.0233 147.364 54.5087 147.294 54.942H136.348C136.435 56.086 136.86 57.0047 137.622 57.698C138.385 58.3913 139.321 58.738 140.43 58.738C142.025 58.738 143.152 58.0707 143.81 56.736H147.008C146.575 58.0533 145.786 59.1367 144.642 59.986C143.516 60.818 142.112 61.234 140.43 61.234C139.061 61.234 137.83 60.9307 136.738 60.324C135.664 59.7 134.814 58.8333 134.19 57.724C133.584 56.5973 133.28 55.2973 133.28 53.824C133.28 52.3507 133.575 51.0593 134.164 49.95C134.771 48.8233 135.612 47.9567 136.686 47.35C137.778 46.7433 139.026 46.44 140.43 46.44C141.782 46.44 142.987 46.7347 144.044 47.324C145.102 47.9133 145.925 48.7453 146.514 49.82C147.104 50.8773 147.398 52.0993 147.398 53.486ZM144.304 52.55C144.287 51.458 143.897 50.5827 143.134 49.924C142.372 49.2653 141.427 48.936 140.3 48.936C139.278 48.936 138.402 49.2653 137.674 49.924C136.946 50.5653 136.513 51.4407 136.374 52.55H144.304ZM155.853 58.348L159.909 46.674H163.055L157.595 61H154.059L148.625 46.674H151.797L155.853 58.348ZM174.968 51.718C175.938 51.8913 176.762 52.4027 177.438 53.252C178.114 54.1013 178.452 55.0633 178.452 56.138C178.452 57.0567 178.209 57.8887 177.724 58.634C177.256 59.362 176.571 59.9427 175.67 60.376C174.768 60.792 173.72 61 172.524 61H165.296V42.93H172.186C173.416 42.93 174.474 43.138 175.358 43.554C176.242 43.97 176.909 44.5333 177.36 45.244C177.81 45.9373 178.036 46.7173 178.036 47.584C178.036 48.624 177.758 49.4907 177.204 50.184C176.649 50.8773 175.904 51.3887 174.968 51.718ZM168.26 50.522H171.926C172.896 50.522 173.65 50.3053 174.188 49.872C174.742 49.4213 175.02 48.78 175.02 47.948C175.02 47.1333 174.742 46.5007 174.188 46.05C173.65 45.582 172.896 45.348 171.926 45.348H168.26V50.522ZM172.264 58.582C173.269 58.582 174.058 58.3393 174.63 57.854C175.202 57.3687 175.488 56.6927 175.488 55.826C175.488 54.942 175.184 54.24 174.578 53.72C173.971 53.2 173.165 52.94 172.16 52.94H168.26V58.582H172.264ZM184.637 41.76V61H181.673V41.76H184.637ZM194.742 61.234C193.39 61.234 192.168 60.9307 191.076 60.324C189.984 59.7 189.126 58.8333 188.502 57.724C187.878 56.5973 187.566 55.2973 187.566 53.824C187.566 52.368 187.887 51.0767 188.528 49.95C189.169 48.8233 190.045 47.9567 191.154 47.35C192.263 46.7433 193.503 46.44 194.872 46.44C196.241 46.44 197.481 46.7433 198.59 47.35C199.699 47.9567 200.575 48.8233 201.216 49.95C201.857 51.0767 202.178 52.368 202.178 53.824C202.178 55.28 201.849 56.5713 201.19 57.698C200.531 58.8247 199.63 59.7 198.486 60.324C197.359 60.9307 196.111 61.234 194.742 61.234ZM194.742 58.66C195.505 58.66 196.215 58.478 196.874 58.114C197.55 57.75 198.096 57.204 198.512 56.476C198.928 55.748 199.136 54.864 199.136 53.824C199.136 52.784 198.937 51.9087 198.538 51.198C198.139 50.47 197.611 49.924 196.952 49.56C196.293 49.196 195.583 49.014 194.82 49.014C194.057 49.014 193.347 49.196 192.688 49.56C192.047 49.924 191.535 50.47 191.154 51.198C190.773 51.9087 190.582 52.784 190.582 53.824C190.582 55.3667 190.972 56.5627 191.752 57.412C192.549 58.244 193.546 58.66 194.742 58.66ZM210.88 46.44C211.99 46.44 212.969 46.6653 213.818 47.116C214.685 47.5493 215.361 48.0953 215.846 48.754V46.674H218.836V61.234C218.836 62.5513 218.559 63.7213 218.004 64.744C217.45 65.784 216.644 66.5987 215.586 67.188C214.546 67.7773 213.298 68.072 211.842 68.072C209.901 68.072 208.289 67.6127 207.006 66.694C205.724 65.7927 204.996 64.562 204.822 63.002H207.76C207.986 63.7473 208.462 64.3453 209.19 64.796C209.936 65.264 210.82 65.498 211.842 65.498C213.038 65.498 214 65.134 214.728 64.406C215.474 63.678 215.846 62.6207 215.846 61.234V58.842C215.344 59.518 214.659 60.09 213.792 60.558C212.943 61.0087 211.972 61.234 210.88 61.234C209.632 61.234 208.488 60.922 207.448 60.298C206.426 59.6567 205.611 58.7727 205.004 57.646C204.415 56.502 204.12 55.2107 204.12 53.772C204.12 52.3333 204.415 51.0593 205.004 49.95C205.611 48.8407 206.426 47.9827 207.448 47.376C208.488 46.752 209.632 46.44 210.88 46.44ZM215.846 53.824C215.846 52.836 215.638 51.978 215.222 51.25C214.824 50.522 214.295 49.9673 213.636 49.586C212.978 49.2047 212.267 49.014 211.504 49.014C210.742 49.014 210.031 49.2047 209.372 49.586C208.714 49.95 208.176 50.496 207.76 51.224C207.362 51.9347 207.162 52.784 207.162 53.772C207.162 54.76 207.362 55.6267 207.76 56.372C208.176 57.1173 208.714 57.6893 209.372 58.088C210.048 58.4693 210.759 58.66 211.504 58.66C212.267 58.66 212.978 58.4693 213.636 58.088C214.295 57.7067 214.824 57.152 215.222 56.424C215.638 55.6787 215.846 54.812 215.846 53.824Z" fill="black"/>
<g filter="url(#filter0_i)">
<path d="M50 94.8418C48.6536 94.8436 47.3295 94.4973 46.1563 93.8368L13.3434 75.2907C12.1397 74.6089 11.1384 73.6202 10.4413 72.4254C9.74416 71.2306 9.37624 69.8724 9.375 68.4891V31.511C9.37623 30.1278 9.74411 28.7696 10.4411 27.5749C11.1382 26.3802 12.1395 25.3916 13.343 24.7098L46.1555 6.16332C47.3296 5.50427 48.6534 5.15813 49.9998 5.15813C51.3462 5.15813 52.67 5.50427 53.8441 6.16332L86.6566 24.7094C87.8603 25.3912 88.8616 26.3798 89.5587 27.5746C90.2558 28.7694 90.6238 30.1277 90.625 31.511V68.4891C90.6238 69.8723 90.2559 71.2305 89.5589 72.4252C88.8618 73.6199 87.8605 74.6085 86.657 75.2903L53.8445 93.8368C52.671 94.4974 51.3467 94.8436 50 94.8418V94.8418ZM18.75 67.5778L50 85.2407L81.25 67.5782V32.4219L50 14.759L18.75 32.4219V67.5778Z" fill="#F25C54"/>
</g>
<path d="M28.5635 62.4754C28.5214 62.4039 28.5002 62.3246 28.5 62.2453V38.7546C28.5002 38.6753 28.5214 38.5961 28.5634 38.5246C28.6056 38.4529 28.6679 38.3904 28.7466 38.346C28.7469 38.3458 28.7471 38.3457 28.7474 38.3455L49.7352 26.5683C49.7361 26.5678 49.7369 26.5674 49.7377 26.5669C49.8165 26.5236 49.9068 26.5 50 26.5C50.0932 26.5 50.1835 26.5236 50.2623 26.5669C50.2631 26.5674 50.2639 26.5678 50.2648 26.5683L71.2525 38.3454C71.2529 38.3457 71.2533 38.3459 71.2537 38.3461C71.3322 38.3906 71.3945 38.453 71.4365 38.5246C71.4787 38.5964 71.4999 38.676 71.5 38.7555V62.2447C71.4999 62.3242 71.4787 62.4037 71.4366 62.4754C71.3944 62.5471 71.3321 62.6096 71.2534 62.6541C71.2531 62.6542 71.2529 62.6544 71.2526 62.6545L50.2649 74.4317C50.264 74.4322 50.2631 74.4326 50.2622 74.4331C50.1835 74.4764 50.0932 74.5 50 74.5C49.9068 74.5 49.8165 74.4764 49.7378 74.4331C49.7369 74.4326 49.736 74.4322 49.7351 74.4317L28.7475 62.6546C28.6684 62.6101 28.6058 62.5474 28.5635 62.4754Z" fill="#FF9667" stroke="#FCE6B7" stroke-width="7"/>
<defs>
<filter id="filter0_i" x="9.375" y="5.15813" width="81.25" height="93.6837" filterUnits="userSpaceOnUse" color-interpolation-filters="sRGB">
<feFlood flood-opacity="0" result="BackgroundImageFix"/>
<feBlend mode="normal" in="SourceGraphic" in2="BackgroundImageFix" result="shape"/>
<feColorMatrix in="SourceAlpha" type="matrix" values="0 0 0 0 0 0 0 0 0 0 0 0 0 0 0 0 0 0 127 0" result="hardAlpha"/>
<feOffset dy="4"/>
<feGaussianBlur stdDeviation="2"/>
<feComposite in2="hardAlpha" operator="arithmetic" k2="-1" k3="1"/>
<feColorMatrix type="matrix" values="0 0 0 0 1 0 0 0 0 0.588235 0 0 0 0 0.403922 0 0 0 0.5 0"/>
<feBlend mode="normal" in2="shape" result="effect1_innerShadow"/>
</filter>
</defs>
</svg>
