<svg width="153" height="68" viewBox="0 0 153 68" fill="none" xmlns="http://www.w3.org/2000/svg">
<path d="M74.1174 32.5241V41.8911H72.1794V40.7861C71.8734 41.1714 71.471 41.4774 70.9724 41.7041C70.485 41.9194 69.9637 42.0271 69.4084 42.0271C68.6717 42.0271 68.0087 41.8741 67.4194 41.5681C66.8414 41.2621 66.3824 40.8088 66.0424 40.2081C65.7137 39.6074 65.5494 38.8821 65.5494 38.0321V32.5241H67.4704V37.7431C67.4704 38.5818 67.68 39.2278 68.0994 39.6811C68.5187 40.1231 69.091 40.3441 69.8164 40.3441C70.5417 40.3441 71.114 40.1231 71.5334 39.6811C71.964 39.2278 72.1794 38.5818 72.1794 37.7431V32.5241H74.1174ZM80.5334 30.0761C81.7914 30.0761 82.8907 30.3198 83.8314 30.8071C84.7834 31.2831 85.5144 31.9744 86.0244 32.8811C86.5457 33.7764 86.8064 34.8248 86.8064 36.0261C86.8064 37.2274 86.5457 38.2701 86.0244 39.1541C85.5144 40.0381 84.7834 40.7181 83.8314 41.1941C82.8907 41.6588 81.7914 41.8911 80.5334 41.8911H76.6744V30.0761H80.5334ZM80.5334 40.3101C81.9161 40.3101 82.9757 39.9361 83.7124 39.1881C84.4491 38.4401 84.8174 37.3861 84.8174 36.0261C84.8174 34.6548 84.4491 33.5838 83.7124 32.8131C82.9757 32.0424 81.9161 31.6571 80.5334 31.6571H78.6124V40.3101H80.5334ZM97.3121 36.9781C97.3121 37.3294 97.2895 37.6468 97.2441 37.9301H90.0871C90.1438 38.6781 90.4215 39.2788 90.9201 39.7321C91.4188 40.1854 92.0308 40.4121 92.7561 40.4121C93.7988 40.4121 94.5355 39.9758 94.9661 39.1031H97.0571C96.7738 39.9644 96.2581 40.6728 95.5101 41.2281C94.7735 41.7721 93.8555 42.0441 92.7561 42.0441C91.8608 42.0441 91.0561 41.8458 90.3421 41.4491C89.6395 41.0411 89.0841 40.4744 88.6761 39.7491C88.2795 39.0124 88.0811 38.1624 88.0811 37.1991C88.0811 36.2358 88.2738 35.3914 88.6591 34.6661C89.0558 33.9294 89.6055 33.3628 90.3081 32.9661C91.0221 32.5694 91.8381 32.3711 92.7561 32.3711C93.6401 32.3711 94.4278 32.5638 95.1191 32.9491C95.8105 33.3344 96.3488 33.8784 96.7341 34.5811C97.1195 35.2724 97.3121 36.0714 97.3121 36.9781ZM95.2891 36.3661C95.2778 35.6521 95.0228 35.0798 94.5241 34.6491C94.0255 34.2184 93.4078 34.0031 92.6711 34.0031C92.0025 34.0031 91.4301 34.2184 90.9541 34.6491C90.4781 35.0684 90.1948 35.6408 90.1041 36.3661H95.2891ZM102.84 40.1571L105.492 32.5241H107.549L103.979 41.8911H101.667L98.1143 32.5241H100.188L102.84 40.1571ZM115.338 35.8221C115.973 35.9354 116.511 36.2698 116.953 36.8251C117.395 37.3804 117.616 38.0094 117.616 38.7121C117.616 39.3128 117.458 39.8568 117.14 40.3441C116.834 40.8201 116.387 41.1998 115.797 41.4831C115.208 41.7551 114.522 41.8911 113.74 41.8911H109.014V30.0761H113.519C114.324 30.0761 115.015 30.2121 115.593 30.4841C116.171 30.7561 116.608 31.1244 116.902 31.5891C117.197 32.0424 117.344 32.5524 117.344 33.1191C117.344 33.7991 117.163 34.3658 116.8 34.8191C116.438 35.2724 115.95 35.6068 115.338 35.8221ZM110.952 35.0401H113.349C113.984 35.0401 114.477 34.8984 114.828 34.6151C115.191 34.3204 115.372 33.9011 115.372 33.3571C115.372 32.8244 115.191 32.4108 114.828 32.1161C114.477 31.8101 113.984 31.6571 113.349 31.6571H110.952V35.0401ZM113.57 40.3101C114.228 40.3101 114.743 40.1514 115.117 39.8341C115.491 39.5168 115.678 39.0748 115.678 38.5081C115.678 37.9301 115.48 37.4711 115.083 37.1311C114.687 36.7911 114.16 36.6211 113.502 36.6211H110.952V40.3101H113.57ZM121.66 29.3111V41.8911H119.722V29.3111H121.66ZM128.268 42.0441C127.384 42.0441 126.585 41.8458 125.871 41.4491C125.157 41.0411 124.596 40.4744 124.188 39.7491C123.78 39.0124 123.576 38.1624 123.576 37.1991C123.576 36.2471 123.785 35.4028 124.205 34.6661C124.624 33.9294 125.196 33.3628 125.922 32.9661C126.647 32.5694 127.457 32.3711 128.353 32.3711C129.248 32.3711 130.058 32.5694 130.784 32.9661C131.509 33.3628 132.081 33.9294 132.501 34.6661C132.92 35.4028 133.13 36.2471 133.13 37.1991C133.13 38.1511 132.914 38.9954 132.484 39.7321C132.053 40.4688 131.464 41.0411 130.716 41.4491C129.979 41.8458 129.163 42.0441 128.268 42.0441ZM128.268 40.3611C128.766 40.3611 129.231 40.2421 129.662 40.0041C130.104 39.7661 130.461 39.4091 130.733 38.9331C131.005 38.4571 131.141 37.8791 131.141 37.1991C131.141 36.5191 131.01 35.9468 130.75 35.4821C130.489 35.0061 130.143 34.6491 129.713 34.4111C129.282 34.1731 128.817 34.0541 128.319 34.0541C127.82 34.0541 127.355 34.1731 126.925 34.4111C126.505 34.6491 126.171 35.0061 125.922 35.4821C125.672 35.9468 125.548 36.5191 125.548 37.1991C125.548 38.2078 125.803 38.9898 126.313 39.5451C126.834 40.0891 127.486 40.3611 128.268 40.3611ZM138.82 32.3711C139.545 32.3711 140.185 32.5184 140.741 32.8131C141.307 33.0964 141.749 33.4534 142.067 33.8841V32.5241H144.022V42.0441C144.022 42.9054 143.84 43.6704 143.478 44.3391C143.115 45.0191 142.588 45.5518 141.897 45.9371C141.217 46.3224 140.401 46.5151 139.449 46.5151C138.179 46.5151 137.125 46.2148 136.287 45.6141C135.448 45.0248 134.972 44.2201 134.859 43.2001H136.78C136.927 43.6874 137.239 44.0784 137.715 44.3731C138.202 44.6791 138.78 44.8321 139.449 44.8321C140.231 44.8321 140.86 44.5941 141.336 44.1181C141.823 43.6421 142.067 42.9508 142.067 42.0441V40.4801C141.738 40.9221 141.29 41.2961 140.724 41.6021C140.168 41.8968 139.534 42.0441 138.82 42.0441C138.004 42.0441 137.256 41.8401 136.576 41.4321C135.907 41.0128 135.374 40.4348 134.978 39.6981C134.592 38.9501 134.4 38.1058 134.4 37.1651C134.4 36.2244 134.592 35.3914 134.978 34.6661C135.374 33.9408 135.907 33.3798 136.576 32.9831C137.256 32.5751 138.004 32.3711 138.82 32.3711ZM142.067 37.1991C142.067 36.5531 141.931 35.9921 141.659 35.5161C141.398 35.0401 141.052 34.6774 140.622 34.4281C140.191 34.1788 139.726 34.0541 139.228 34.0541C138.729 34.0541 138.264 34.1788 137.834 34.4281C137.403 34.6661 137.052 35.0231 136.78 35.4991C136.519 35.9638 136.389 36.5191 136.389 37.1651C136.389 37.8111 136.519 38.3778 136.78 38.8651C137.052 39.3524 137.403 39.7264 137.834 39.9871C138.276 40.2364 138.74 40.3611 139.228 40.3611C139.726 40.3611 140.191 40.2364 140.622 39.9871C141.052 39.7378 141.398 39.3751 141.659 38.8991C141.931 38.4118 142.067 37.8451 142.067 37.1991Z" fill="#ABE7EF"/>
<path d="M73.4503 31.8509V41.2179H71.5123V40.1129C71.2063 40.4982 70.804 40.8042 70.3053 41.0309C69.818 41.2462 69.2966 41.3539 68.7413 41.3539C68.0046 41.3539 67.3416 41.2009 66.7523 40.8949C66.1743 40.5889 65.7153 40.1356 65.3753 39.5349C65.0466 38.9342 64.8823 38.2089 64.8823 37.3589V31.8509H66.8033V37.0699C66.8033 37.9086 67.013 38.5546 67.4323 39.0079C67.8516 39.4499 68.424 39.6709 69.1493 39.6709C69.8746 39.6709 70.447 39.4499 70.8663 39.0079C71.297 38.5546 71.5123 37.9086 71.5123 37.0699V31.8509H73.4503ZM79.8663 29.4029C81.1243 29.4029 82.2237 29.6466 83.1643 30.1339C84.1163 30.6099 84.8473 31.3012 85.3573 32.2079C85.8787 33.1032 86.1393 34.1516 86.1393 35.3529C86.1393 36.5542 85.8787 37.5969 85.3573 38.4809C84.8473 39.3649 84.1163 40.0449 83.1643 40.5209C82.2237 40.9856 81.1243 41.2179 79.8663 41.2179H76.0073V29.4029H79.8663ZM79.8663 39.6369C81.249 39.6369 82.3087 39.2629 83.0453 38.5149C83.782 37.7669 84.1503 36.7129 84.1503 35.3529C84.1503 33.9816 83.782 32.9106 83.0453 32.1399C82.3087 31.3692 81.249 30.9839 79.8663 30.9839H77.9453V39.6369H79.8663ZM96.6451 36.3049C96.6451 36.6562 96.6224 36.9736 96.5771 37.2569H89.4201C89.4767 38.0049 89.7544 38.6056 90.2531 39.0589C90.7517 39.5122 91.3637 39.7389 92.0891 39.7389C93.1317 39.7389 93.8684 39.3026 94.2991 38.4299H96.3901C96.1067 39.2912 95.5911 39.9996 94.8431 40.5549C94.1064 41.0989 93.1884 41.3709 92.0891 41.3709C91.1937 41.3709 90.3891 41.1726 89.6751 40.7759C88.9724 40.3679 88.4171 39.8012 88.0091 39.0759C87.6124 38.3392 87.4141 37.4892 87.4141 36.5259C87.4141 35.5626 87.6067 34.7182 87.9921 33.9929C88.3887 33.2562 88.9384 32.6896 89.6411 32.2929C90.3551 31.8962 91.1711 31.6979 92.0891 31.6979C92.9731 31.6979 93.7607 31.8906 94.4521 32.2759C95.1434 32.6612 95.6817 33.2052 96.0671 33.9079C96.4524 34.5992 96.6451 35.3982 96.6451 36.3049ZM94.6221 35.6929C94.6107 34.9789 94.3557 34.4066 93.8571 33.9759C93.3584 33.5452 92.7407 33.3299 92.0041 33.3299C91.3354 33.3299 90.7631 33.5452 90.2871 33.9759C89.8111 34.3952 89.5277 34.9676 89.4371 35.6929H94.6221ZM102.173 39.4839L104.825 31.8509H106.882L103.312 41.2179H101L97.4473 31.8509H99.5213L102.173 39.4839ZM114.671 35.1489C115.306 35.2622 115.844 35.5966 116.286 36.1519C116.728 36.7072 116.949 37.3362 116.949 38.0389C116.949 38.6396 116.791 39.1836 116.473 39.6709C116.167 40.1469 115.72 40.5266 115.13 40.8099C114.541 41.0819 113.855 41.2179 113.073 41.2179H108.347V29.4029H112.852C113.657 29.4029 114.348 29.5389 114.926 29.8109C115.504 30.0829 115.941 30.4512 116.235 30.9159C116.53 31.3692 116.677 31.8792 116.677 32.4459C116.677 33.1259 116.496 33.6926 116.133 34.1459C115.771 34.5992 115.283 34.9336 114.671 35.1489ZM110.285 34.3669H112.682C113.317 34.3669 113.81 34.2252 114.161 33.9419C114.524 33.6472 114.705 33.2279 114.705 32.6839C114.705 32.1512 114.524 31.7376 114.161 31.4429C113.81 31.1369 113.317 30.9839 112.682 30.9839H110.285V34.3669ZM112.903 39.6369C113.561 39.6369 114.076 39.4782 114.45 39.1609C114.824 38.8436 115.011 38.4016 115.011 37.8349C115.011 37.2569 114.813 36.7979 114.416 36.4579C114.02 36.1179 113.493 35.9479 112.835 35.9479H110.285V39.6369H112.903ZM120.993 28.6379V41.2179H119.055V28.6379H120.993ZM127.601 41.3709C126.717 41.3709 125.918 41.1726 125.204 40.7759C124.49 40.3679 123.929 39.8012 123.521 39.0759C123.113 38.3392 122.909 37.4892 122.909 36.5259C122.909 35.5739 123.118 34.7296 123.538 33.9929C123.957 33.2562 124.529 32.6896 125.255 32.2929C125.98 31.8962 126.79 31.6979 127.686 31.6979C128.581 31.6979 129.391 31.8962 130.117 32.2929C130.842 32.6896 131.414 33.2562 131.834 33.9929C132.253 34.7296 132.463 35.5739 132.463 36.5259C132.463 37.4779 132.247 38.3222 131.817 39.0589C131.386 39.7956 130.797 40.3679 130.049 40.7759C129.312 41.1726 128.496 41.3709 127.601 41.3709ZM127.601 39.6879C128.099 39.6879 128.564 39.5689 128.995 39.3309C129.437 39.0929 129.794 38.7359 130.066 38.2599C130.338 37.7839 130.474 37.2059 130.474 36.5259C130.474 35.8459 130.343 35.2736 130.083 34.8089C129.822 34.3329 129.476 33.9759 129.046 33.7379C128.615 33.4999 128.15 33.3809 127.652 33.3809C127.153 33.3809 126.688 33.4999 126.258 33.7379C125.838 33.9759 125.504 34.3329 125.255 34.8089C125.005 35.2736 124.881 35.8459 124.881 36.5259C124.881 37.5346 125.136 38.3166 125.646 38.8719C126.167 39.4159 126.819 39.6879 127.601 39.6879ZM138.152 31.6979C138.878 31.6979 139.518 31.8452 140.073 32.1399C140.64 32.4232 141.082 32.7802 141.399 33.2109V31.8509H143.354V41.3709C143.354 42.2322 143.173 42.9972 142.81 43.6659C142.448 44.3459 141.921 44.8786 141.229 45.2639C140.549 45.6492 139.733 45.8419 138.781 45.8419C137.512 45.8419 136.458 45.5416 135.619 44.9409C134.781 44.3516 134.305 43.5469 134.191 42.5269H136.112C136.26 43.0142 136.571 43.4052 137.047 43.6999C137.535 44.0059 138.113 44.1589 138.781 44.1589C139.563 44.1589 140.192 43.9209 140.668 43.4449C141.156 42.9689 141.399 42.2776 141.399 41.3709V39.8069C141.071 40.2489 140.623 40.6229 140.056 40.9289C139.501 41.2236 138.866 41.3709 138.152 41.3709C137.336 41.3709 136.588 41.1669 135.908 40.7589C135.24 40.3396 134.707 39.7616 134.31 39.0249C133.925 38.2769 133.732 37.4326 133.732 36.4919C133.732 35.5512 133.925 34.7182 134.31 33.9929C134.707 33.2676 135.24 32.7066 135.908 32.3099C136.588 31.9019 137.336 31.6979 138.152 31.6979ZM141.399 36.5259C141.399 35.8799 141.263 35.3189 140.991 34.8429C140.731 34.3669 140.385 34.0042 139.954 33.7549C139.524 33.5056 139.059 33.3809 138.56 33.3809C138.062 33.3809 137.597 33.5056 137.166 33.7549C136.736 33.9929 136.384 34.3499 136.112 34.8259C135.852 35.2906 135.721 35.8459 135.721 36.4919C135.721 37.1379 135.852 37.7046 136.112 38.1919C136.384 38.6792 136.736 39.0532 137.166 39.3139C137.608 39.5632 138.073 39.6879 138.56 39.6879C139.059 39.6879 139.524 39.5632 139.954 39.3139C140.385 39.0646 140.731 38.7019 140.991 38.2259C141.263 37.7386 141.399 37.1719 141.399 36.5259Z" fill="#071E3D"/>
<path d="M33.4061 64.5271C32.5065 64.5283 31.6219 64.2952 30.838 63.8504L8.91499 51.3639C8.11083 50.9049 7.44179 50.2393 6.97604 49.4349C6.51029 48.6305 6.26447 47.716 6.26364 46.7847V21.8885C6.26447 20.9572 6.51025 20.0428 6.97595 19.2385C7.44166 18.4341 8.11064 17.7685 8.91473 17.3095L30.8375 4.82276C31.6219 4.37904 32.5064 4.146 33.406 4.146C34.3056 4.146 35.19 4.37904 35.9745 4.82276L57.8972 17.3092C58.7014 17.7683 59.3704 18.4339 59.8362 19.2383C60.3019 20.0427 60.5477 20.9572 60.5486 21.8885V46.7847C60.5478 47.7159 60.302 48.6303 59.8363 49.4347C59.3706 50.2391 58.7016 50.9047 57.8975 51.3637L35.9747 63.8504C35.1907 64.2952 34.3059 64.5283 33.4061 64.5271V64.5271ZM12.5273 46.1711L33.4061 58.063L54.2849 46.1714V22.5018L33.4061 10.61L12.5273 22.5018V46.1711Z" fill="#071E3D"/>
<path d="M46.6092 42.1011L33.4061 49.5669L20.2031 42.1011V27.2453L33.4061 19.7795L46.6092 27.2453V42.1011Z" fill="#ABE7EF" stroke="#0C97F2" stroke-width="7"/>
</svg>
