<svg width="183" height="82" viewBox="0 0 183 82" fill="none" xmlns="http://www.w3.org/2000/svg">
<g clip-path="url(#clip0)">
<path opacity="0.6" d="M92.2288 39.9128V51.6601H89.8908V50.2743C89.5217 50.7575 89.0366 51.1413 88.4347 51.4256C87.8471 51.6956 87.2176 51.8307 86.5479 51.8307C85.6589 51.8307 84.8591 51.6388 84.1484 51.255C83.4511 50.8713 82.8974 50.3028 82.4872 49.5494C82.0904 48.7961 81.8925 47.8865 81.8925 46.8205V39.9128H84.2099V46.458C84.2099 47.5098 84.4631 48.32 84.9687 48.8885C85.4744 49.4428 86.1653 49.72 87.0401 49.72C87.9149 49.72 88.6059 49.4428 89.1115 48.8885C89.6313 48.32 89.8908 47.5098 89.8908 46.458V39.9128H92.2288ZM99.9692 36.8427C101.487 36.8427 102.813 37.1483 103.948 37.7595C105.096 38.3564 105.978 39.2234 106.594 40.3605C107.222 41.4833 107.537 42.7981 107.537 44.3047C107.537 45.8113 107.222 47.1189 106.594 48.2276C105.978 49.3362 105.096 50.189 103.948 50.786C102.813 51.3688 101.487 51.6601 99.9692 51.6601H95.3138V36.8427H99.9692ZM99.9692 49.6773C101.637 49.6773 102.915 49.2083 103.804 48.2702C104.693 47.3321 105.137 46.0103 105.137 44.3047C105.137 42.5849 104.693 41.2418 103.804 40.2752C102.915 39.3087 101.637 38.8255 99.9692 38.8255H97.6518V49.6773H99.9692ZM120.21 45.4986C120.21 45.9392 120.184 46.3372 120.128 46.6925H111.494C111.563 47.6306 111.898 48.384 112.499 48.9525C113.101 49.521 113.839 49.8053 114.714 49.8053C115.972 49.8053 116.861 49.2581 117.38 48.1636H119.903C119.561 49.2438 118.939 50.1322 118.037 50.8286C117.148 51.5109 116.041 51.852 114.714 51.852C113.634 51.852 112.663 51.6033 111.802 51.1058C110.955 50.5941 110.284 49.8834 109.792 48.9738C109.314 48.0499 109.074 46.9839 109.074 45.7758C109.074 44.5677 109.307 43.5087 109.772 42.5991C110.25 41.6752 110.914 40.9646 111.761 40.4671C112.622 39.9696 113.607 39.7209 114.714 39.7209C115.781 39.7209 116.731 39.9626 117.565 40.4458C118.399 40.929 119.049 41.6112 119.513 42.4925C119.979 43.3595 120.21 44.3615 120.21 45.4986ZM117.77 44.7311C117.757 43.8357 117.449 43.1179 116.847 42.5778C116.246 42.0376 115.501 41.7676 114.612 41.7676C113.805 41.7676 113.114 42.0376 112.54 42.5778C111.966 43.1036 111.624 43.8215 111.515 44.7311H117.77ZM126.88 49.4855L130.079 39.9128H132.561L128.254 51.6601H125.465L121.178 39.9128H123.68L126.88 49.4855ZM141.957 44.0489C142.723 44.191 143.373 44.6103 143.906 45.3067C144.439 46.0032 144.706 46.792 144.706 47.6733C144.706 48.4266 144.514 49.1088 144.131 49.72C143.762 50.3169 143.222 50.7931 142.511 51.1484C141.8 51.4895 140.973 51.6601 140.03 51.6601H134.328V36.8427H139.763C140.733 36.8427 141.568 37.0133 142.265 37.3544C142.962 37.6955 143.489 38.1574 143.844 38.7402C144.199 39.3087 144.377 39.9483 144.377 40.659C144.377 41.5118 144.158 42.2225 143.721 42.791C143.283 43.3595 142.696 43.7788 141.957 44.0489ZM136.666 43.0681H139.558C140.323 43.0681 140.918 42.8904 141.342 42.5351C141.779 42.1656 141.998 41.6397 141.998 40.9575C141.998 40.2894 141.779 39.7707 141.342 39.4011C140.918 39.0173 140.323 38.8255 139.558 38.8255H136.666V43.0681ZM139.825 49.6773C140.617 49.6773 141.24 49.4783 141.691 49.0804C142.142 48.6824 142.368 48.1281 142.368 47.4174C142.368 46.6925 142.128 46.1169 141.65 45.6905C141.171 45.2641 140.535 45.0509 139.743 45.0509H136.666V49.6773H139.825ZM149.584 35.8833V51.6601H147.246V35.8833H149.584ZM157.555 51.852C156.489 51.852 155.525 51.6033 154.663 51.1058C153.802 50.5941 153.125 49.8834 152.633 48.9738C152.141 48.0499 151.895 46.9839 151.895 45.7758C151.895 44.5819 152.148 43.523 152.653 42.5991C153.159 41.6752 153.85 40.9646 154.725 40.4671C155.6 39.9696 156.578 39.7209 157.658 39.7209C158.737 39.7209 159.716 39.9696 160.59 40.4671C161.465 40.9646 162.156 41.6752 162.662 42.5991C163.167 43.523 163.421 44.5819 163.421 45.7758C163.421 46.9697 163.161 48.0286 162.641 48.9525C162.121 49.8764 161.411 50.5941 160.508 51.1058C159.619 51.6033 158.635 51.852 157.555 51.852ZM157.555 49.7413C158.157 49.7413 158.717 49.5921 159.237 49.2936C159.77 48.9951 160.201 48.5474 160.529 47.9504C160.857 47.3535 161.021 46.6286 161.021 45.7758C161.021 44.923 160.864 44.2052 160.549 43.6225C160.235 43.0255 159.818 42.5778 159.298 42.2793C158.778 41.9808 158.218 41.8316 157.617 41.8316C157.015 41.8316 156.455 41.9808 155.935 42.2793C155.429 42.5778 155.025 43.0255 154.725 43.6225C154.424 44.2052 154.274 44.923 154.274 45.7758C154.274 47.0408 154.581 48.0215 155.197 48.7179C155.825 49.4002 156.612 49.7413 157.555 49.7413ZM170.285 39.7209C171.16 39.7209 171.932 39.9056 172.602 40.2752C173.286 40.6305 173.819 41.0782 174.202 41.6184V39.9128H176.56V51.852C176.56 52.9322 176.342 53.8916 175.904 54.7302C175.467 55.583 174.831 56.251 173.997 56.7343C173.176 57.2175 172.192 57.4591 171.043 57.4591C169.512 57.4591 168.241 57.0825 167.229 56.3292C166.218 55.5901 165.643 54.5809 165.506 53.3017H167.824C168.002 53.9129 168.377 54.4032 168.952 54.7728C169.54 55.1566 170.237 55.3485 171.043 55.3485C171.987 55.3485 172.746 55.05 173.32 54.453C173.908 53.8561 174.202 52.9891 174.202 51.852V49.8905C173.806 50.4449 173.265 50.9139 172.582 51.2977C171.912 51.6672 171.146 51.852 170.285 51.852C169.3 51.852 168.398 51.5961 167.577 51.0845C166.771 50.5586 166.128 49.8337 165.65 48.9098C165.185 47.9717 164.952 46.9129 164.952 45.7331C164.952 44.5534 165.185 43.5087 165.65 42.5991C166.128 41.6895 166.771 40.9859 167.577 40.4884C168.398 39.9767 169.3 39.7209 170.285 39.7209ZM174.202 45.7758C174.202 44.9656 174.038 44.2621 173.71 43.6651C173.396 43.0681 172.978 42.6133 172.459 42.3006C171.939 41.988 171.379 41.8316 170.777 41.8316C170.176 41.8316 169.615 41.988 169.095 42.3006C168.576 42.5991 168.152 43.0468 167.824 43.6438C167.51 44.2266 167.352 44.923 167.352 45.7331C167.352 46.5433 167.51 47.254 167.824 47.8651C168.152 48.4763 168.576 48.9453 169.095 49.2723C169.628 49.5849 170.189 49.7413 170.777 49.7413C171.379 49.7413 171.939 49.5849 172.459 49.2723C172.978 48.9596 173.396 48.5047 173.71 47.9078C174.038 47.2966 174.202 46.5859 174.202 45.7758Z" fill="#ABE7EF"/>
<path d="M90.6513 38.2728V50.0201H88.3133V48.6343C87.9441 49.1175 87.459 49.5013 86.8572 49.7856C86.2695 50.0556 85.6401 50.1907 84.9704 50.1907C84.0814 50.1907 83.2816 49.9988 82.5709 49.615C81.8736 49.2313 81.3199 48.6627 80.9097 47.9094C80.5129 47.1561 80.3149 46.2465 80.3149 45.1805V38.2728H82.6324V44.818C82.6324 45.8698 82.8856 46.68 83.3912 47.2485C83.8968 47.8028 84.5878 48.08 85.4626 48.08C86.3374 48.08 87.0284 47.8028 87.534 47.2485C88.0538 46.68 88.3133 45.8698 88.3133 44.818V38.2728H90.6513ZM98.3917 35.2027C99.9093 35.2027 101.235 35.5083 102.37 36.1194C103.519 36.7164 104.401 37.5834 105.016 38.7205C105.645 39.8433 105.959 41.1581 105.959 42.6647C105.959 44.1713 105.645 45.4789 105.016 46.5876C104.401 47.6962 103.519 48.549 102.37 49.146C101.235 49.7287 99.9093 50.0201 98.3917 50.0201H93.7362V35.2027H98.3917ZM98.3917 48.0373C100.059 48.0373 101.338 47.5683 102.227 46.6302C103.115 45.6921 103.56 44.3703 103.56 42.6647C103.56 40.9449 103.115 39.6017 102.227 38.6352C101.338 37.6687 100.059 37.1854 98.3917 37.1854H96.0742V48.0373H98.3917ZM118.633 43.8586C118.633 44.2992 118.606 44.6972 118.551 45.0525H109.917C109.985 45.9906 110.321 46.7439 110.922 47.3125C111.524 47.881 112.262 48.1653 113.137 48.1653C114.395 48.1653 115.284 47.6181 115.803 46.5236H118.325C117.984 47.6038 117.361 48.4922 116.459 49.1886C115.571 49.8709 114.463 50.212 113.137 50.212C112.057 50.212 111.086 49.9633 110.224 49.4658C109.377 48.9541 108.707 48.2434 108.215 47.3338C107.737 46.4099 107.497 45.3439 107.497 44.1358C107.497 42.9277 107.729 41.8687 108.194 40.9591C108.673 40.0352 109.336 39.3246 110.183 38.8271C111.045 38.3296 112.029 38.0809 113.137 38.0809C114.203 38.0809 115.154 38.3225 115.987 38.8058C116.822 39.289 117.471 39.9712 117.936 40.8525C118.401 41.7195 118.633 42.7215 118.633 43.8586ZM116.192 43.0911C116.179 42.1956 115.871 41.4779 115.269 40.9378C114.668 40.3976 113.923 40.1276 113.034 40.1276C112.228 40.1276 111.537 40.3976 110.963 40.9378C110.388 41.4636 110.047 42.1815 109.937 43.0911H116.192ZM125.302 47.8455L128.501 38.2728H130.983L126.676 50.0201H123.887L119.601 38.2728H122.103L125.302 47.8455ZM140.38 42.4088C141.145 42.551 141.795 42.9703 142.328 43.6667C142.861 44.3632 143.128 45.152 143.128 46.0333C143.128 46.7866 142.936 47.4688 142.554 48.08C142.185 48.6769 141.644 49.1531 140.934 49.5084C140.222 49.8495 139.396 50.0201 138.452 50.0201H132.751V35.2027H138.186C139.156 35.2027 139.99 35.3732 140.688 35.7144C141.385 36.0555 141.911 36.5174 142.267 37.1002C142.622 37.6687 142.8 38.3083 142.8 39.019C142.8 39.8718 142.581 40.5825 142.144 41.151C141.706 41.7195 141.118 42.1388 140.38 42.4088ZM135.089 41.4281H137.98C138.746 41.4281 139.34 41.2504 139.765 40.8951C140.202 40.5256 140.421 39.9997 140.421 39.3175C140.421 38.6494 140.202 38.1307 139.765 37.7611C139.34 37.3773 138.746 37.1854 137.98 37.1854H135.089V41.4281ZM138.247 48.0373C139.04 48.0373 139.662 47.8383 140.113 47.4404C140.565 47.0424 140.79 46.4881 140.79 45.7774C140.79 45.0525 140.55 44.4769 140.072 44.0505C139.593 43.6241 138.958 43.4109 138.165 43.4109H135.089V48.0373H138.247ZM148.007 34.2433V50.0201H145.669V34.2433H148.007ZM155.978 50.212C154.911 50.212 153.947 49.9633 153.086 49.4658C152.224 48.9541 151.548 48.2434 151.055 47.3338C150.563 46.4099 150.317 45.3439 150.317 44.1358C150.317 42.9419 150.57 41.883 151.076 40.9591C151.582 40.0352 152.273 39.3246 153.147 38.8271C154.022 38.3296 155 38.0809 156.08 38.0809C157.16 38.0809 158.138 38.3296 159.013 38.8271C159.888 39.3246 160.579 40.0352 161.084 40.9591C161.59 41.883 161.843 42.9419 161.843 44.1358C161.843 45.3297 161.583 46.3886 161.064 47.3125C160.544 48.2363 159.833 48.9541 158.931 49.4658C158.042 49.9633 157.057 50.212 155.978 50.212ZM155.978 48.1013C156.579 48.1013 157.139 47.9521 157.659 47.6536C158.192 47.3551 158.623 46.9074 158.951 46.3104C159.279 45.7135 159.443 44.9886 159.443 44.1358C159.443 43.283 159.286 42.5652 158.972 41.9825C158.657 41.3855 158.241 40.9378 157.721 40.6393C157.201 40.3408 156.641 40.1916 156.039 40.1916C155.437 40.1916 154.877 40.3408 154.357 40.6393C153.852 40.9378 153.448 41.3855 153.147 41.9825C152.847 42.5652 152.696 43.283 152.696 44.1358C152.696 45.4008 153.004 46.3815 153.619 47.0779C154.248 47.7602 155.034 48.1013 155.978 48.1013ZM168.707 38.0809C169.583 38.0809 170.355 38.2656 171.025 38.6352C171.708 38.9905 172.242 39.4382 172.624 39.9784V38.2728H174.983V50.212C174.983 51.2922 174.764 52.2516 174.326 53.0902C173.889 53.943 173.254 54.611 172.419 55.0943C171.599 55.5775 170.614 55.8191 169.466 55.8191C167.935 55.8191 166.663 55.4425 165.651 54.6892C164.64 53.9501 164.066 52.9409 163.929 51.6617H166.246C166.424 52.2729 166.8 52.7632 167.374 53.1328C167.962 53.5166 168.66 53.7085 169.466 53.7085C170.409 53.7085 171.168 53.41 171.742 52.813C172.331 52.2161 172.624 51.3491 172.624 50.212V48.2505C172.228 48.8049 171.688 49.2739 171.004 49.6577C170.334 50.0272 169.568 50.212 168.707 50.212C167.723 50.212 166.82 49.9561 166 49.4445C165.194 48.9186 164.551 48.1937 164.072 47.2698C163.607 46.3317 163.375 45.2729 163.375 44.0931C163.375 42.9134 163.607 41.8687 164.072 40.9591C164.551 40.0495 165.194 39.3459 166 38.8484C166.82 38.3367 167.723 38.0809 168.707 38.0809ZM172.624 44.1358C172.624 43.3256 172.46 42.6221 172.132 42.0251C171.818 41.4281 171.401 40.9733 170.881 40.6606C170.362 40.3479 169.801 40.1916 169.199 40.1916C168.598 40.1916 168.037 40.3479 167.518 40.6606C166.999 40.9591 166.574 41.4068 166.246 42.0038C165.932 42.5865 165.774 43.283 165.774 44.0931C165.774 44.9033 165.932 45.614 166.246 46.2251C166.574 46.8363 166.999 47.3053 167.518 47.6323C168.051 47.9449 168.612 48.1013 169.199 48.1013C169.801 48.1013 170.362 47.9449 170.881 47.6323C171.401 47.3196 171.818 46.8647 172.132 46.2678C172.46 45.6566 172.624 44.9459 172.624 44.1358Z" fill="#071E3D"/>
<g filter="url(#filter0_d)">
<path d="M39.4396 77.7704C38.3776 77.7718 37.3332 77.4879 36.4077 76.9462L10.5251 61.7384C9.57567 61.1794 8.78586 60.3687 8.23599 59.3889C7.68609 58.4092 7.39588 57.2955 7.3949 56.1612V25.839C7.39587 24.7048 7.68605 23.5912 8.23583 22.6115C8.7857 21.6318 9.57552 20.8211 10.5248 20.2621L36.4071 5.05399C37.3332 4.51357 38.3774 4.22974 39.4395 4.22974C40.5015 4.22974 41.5457 4.51357 42.4718 5.05399L68.3541 20.2618C69.3036 20.8208 70.0934 21.6315 70.6433 22.6113C71.1931 23.591 71.4834 24.7047 71.4844 25.839V56.1612C71.4834 57.2954 71.1932 58.409 70.6434 59.3887C70.0935 60.3684 69.3037 61.1791 68.3544 61.7381L42.4721 76.9462C41.5465 77.488 40.5019 77.7719 39.4396 77.7704ZM14.7898 55.4138L39.4396 69.8974L64.0894 55.4141V26.5861L39.4396 12.1025L14.7898 26.5861V55.4138Z" fill="#001C55"/>
</g>
<path d="M22.5307 51.2298C22.4975 51.1712 22.4807 51.1061 22.4806 51.0411V31.7787C22.4807 31.7137 22.4975 31.6488 22.5306 31.5901C22.5639 31.5314 22.613 31.4801 22.6751 31.4437C22.6753 31.4435 22.6755 31.4434 22.6757 31.4433L39.2308 21.786C39.2315 21.7856 39.2321 21.7852 39.2327 21.7848C39.2949 21.7493 39.3661 21.73 39.4396 21.73C39.5132 21.73 39.5844 21.7493 39.6465 21.7848C39.6472 21.7852 39.6478 21.7856 39.6485 21.786L56.2035 31.4432C56.2038 31.4435 56.2041 31.4436 56.2044 31.4438C56.2663 31.4803 56.3155 31.5314 56.3486 31.5901C56.3819 31.649 56.3986 31.7143 56.3987 31.7795V51.0406C56.3986 51.1058 56.3819 51.171 56.3487 51.2298C56.3154 51.2886 56.2663 51.3398 56.2042 51.3763C56.204 51.3764 56.2038 51.3766 56.2036 51.3767L39.6486 61.034C39.6479 61.0344 39.6472 61.0347 39.6465 61.0351C39.5844 61.0706 39.5132 61.09 39.4396 61.09C39.3661 61.09 39.2949 61.0706 39.2328 61.0351C39.2321 61.0347 39.2314 61.0344 39.2307 61.034L22.6758 51.3767C22.6134 51.3402 22.564 51.2888 22.5307 51.2298Z" fill="#ABE7EF" stroke="#0C97F2" stroke-width="7.66879"/>
</g>
<defs>
<filter id="filter0_d" x="3.3949" y="3.22974" width="72.0895" height="81.5406" filterUnits="userSpaceOnUse" color-interpolation-filters="sRGB">
<feFlood flood-opacity="0" result="BackgroundImageFix"/>
<feColorMatrix in="SourceAlpha" type="matrix" values="0 0 0 0 0 0 0 0 0 0 0 0 0 0 0 0 0 0 127 0"/>
<feOffset dy="3"/>
<feGaussianBlur stdDeviation="2"/>
<feColorMatrix type="matrix" values="0 0 0 0 0 0 0 0 0 0 0 0 0 0 0 0 0 0 0.25 0"/>
<feBlend mode="normal" in2="BackgroundImageFix" result="effect1_dropShadow"/>
<feBlend mode="normal" in="SourceGraphic" in2="effect1_dropShadow" result="shape"/>
</filter>
<clipPath id="clip0">
<rect width="183" height="82" fill="white"/>
</clipPath>
</defs>
</svg>
