<svg width="150" height="145" viewBox="0 0 150 145" fill="none" xmlns="http://www.w3.org/2000/svg">
<rect width="150" height="145" rx="10" fill="white"/>
<path d="M31.776 19.776V33H29.04V31.44C28.608 31.984 28.04 32.416 27.336 32.736C26.648 33.04 25.912 33.192 25.128 33.192C24.088 33.192 23.152 32.976 22.32 32.544C21.504 32.112 20.856 31.472 20.376 30.624C19.912 29.776 19.68 28.752 19.68 27.552V19.776H22.392V27.144C22.392 28.328 22.688 29.24 23.28 29.88C23.872 30.504 24.68 30.816 25.704 30.816C26.728 30.816 27.536 30.504 28.128 29.88C28.736 29.24 29.04 28.328 29.04 27.144V19.776H31.776ZM40.8339 16.32C42.6099 16.32 44.1619 16.664 45.4899 17.352C46.8339 18.024 47.8659 19 48.5859 20.28C49.3219 21.544 49.6899 23.024 49.6899 24.72C49.6899 26.416 49.3219 27.888 48.5859 29.136C47.8659 30.384 46.8339 31.344 45.4899 32.016C44.1619 32.672 42.6099 33 40.8339 33H35.3859V16.32H40.8339ZM40.8339 30.768C42.7859 30.768 44.2819 30.24 45.3219 29.184C46.3619 28.128 46.8819 26.64 46.8819 24.72C46.8819 22.784 46.3619 21.272 45.3219 20.184C44.2819 19.096 42.7859 18.552 40.8339 18.552H38.1219V30.768H40.8339ZM64.5216 26.064C64.5216 26.56 64.4896 27.008 64.4256 27.408H54.3216C54.4016 28.464 54.7936 29.312 55.4976 29.952C56.2016 30.592 57.0656 30.912 58.0896 30.912C59.5616 30.912 60.6016 30.296 61.2096 29.064H64.1616C63.7616 30.28 63.0336 31.28 61.9776 32.064C60.9376 32.832 59.6416 33.216 58.0896 33.216C56.8256 33.216 55.6896 32.936 54.6816 32.376C53.6896 31.8 52.9056 31 52.3296 29.976C51.7696 28.936 51.4896 27.736 51.4896 26.376C51.4896 25.016 51.7616 23.824 52.3056 22.8C52.8656 21.76 53.6416 20.96 54.6336 20.4C55.6416 19.84 56.7936 19.56 58.0896 19.56C59.3376 19.56 60.4496 19.832 61.4256 20.376C62.4016 20.92 63.1616 21.688 63.7056 22.68C64.2496 23.656 64.5216 24.784 64.5216 26.064ZM61.6656 25.2C61.6496 24.192 61.2896 23.384 60.5856 22.776C59.8816 22.168 59.0096 21.864 57.9696 21.864C57.0256 21.864 56.2176 22.168 55.5456 22.776C54.8736 23.368 54.4736 24.176 54.3456 25.2H61.6656ZM72.3261 30.552L76.0701 19.776H78.9741L73.9341 33H70.6701L65.6541 19.776H68.5821L72.3261 30.552ZM89.9702 24.432C90.8662 24.592 91.6262 25.064 92.2502 25.848C92.8742 26.632 93.1862 27.52 93.1862 28.512C93.1862 29.36 92.9622 30.128 92.5142 30.816C92.0822 31.488 91.4502 32.024 90.6182 32.424C89.7862 32.808 88.8182 33 87.7142 33H81.0422V16.32H87.4022C88.5382 16.32 89.5142 16.512 90.3302 16.896C91.1462 17.28 91.7622 17.8 92.1782 18.456C92.5942 19.096 92.8022 19.816 92.8022 20.616C92.8022 21.576 92.5462 22.376 92.0342 23.016C91.5222 23.656 90.8342 24.128 89.9702 24.432ZM83.7782 23.328H87.1622C88.0582 23.328 88.7542 23.128 89.2502 22.728C89.7622 22.312 90.0182 21.72 90.0182 20.952C90.0182 20.2 89.7622 19.616 89.2502 19.2C88.7542 18.768 88.0582 18.552 87.1622 18.552H83.7782V23.328ZM87.4742 30.768C88.4022 30.768 89.1302 30.544 89.6582 30.096C90.1862 29.648 90.4502 29.024 90.4502 28.224C90.4502 27.408 90.1702 26.76 89.6102 26.28C89.0502 25.8 88.3062 25.56 87.3782 25.56H83.7782V30.768H87.4742ZM98.8954 15.24V33H96.1594V15.24H98.8954ZM108.224 33.216C106.976 33.216 105.848 32.936 104.84 32.376C103.832 31.8 103.04 31 102.464 29.976C101.888 28.936 101.6 27.736 101.6 26.376C101.6 25.032 101.896 23.84 102.488 22.8C103.08 21.76 103.888 20.96 104.912 20.4C105.936 19.84 107.08 19.56 108.344 19.56C109.608 19.56 110.752 19.84 111.776 20.4C112.8 20.96 113.608 21.76 114.2 22.8C114.792 23.84 115.088 25.032 115.088 26.376C115.088 27.72 114.784 28.912 114.176 29.952C113.568 30.992 112.736 31.8 111.68 32.376C110.64 32.936 109.488 33.216 108.224 33.216ZM108.224 30.84C108.928 30.84 109.584 30.672 110.192 30.336C110.816 30 111.32 29.496 111.704 28.824C112.088 28.152 112.28 27.336 112.28 26.376C112.28 25.416 112.096 24.608 111.728 23.952C111.36 23.28 110.872 22.776 110.264 22.44C109.656 22.104 109 21.936 108.296 21.936C107.592 21.936 106.936 22.104 106.328 22.44C105.736 22.776 105.264 23.28 104.912 23.952C104.56 24.608 104.384 25.416 104.384 26.376C104.384 27.8 104.744 28.904 105.464 29.688C106.2 30.456 107.12 30.84 108.224 30.84ZM123.12 19.56C124.144 19.56 125.048 19.768 125.832 20.184C126.632 20.584 127.256 21.088 127.704 21.696V19.776H130.464V33.216C130.464 34.432 130.208 35.512 129.696 36.456C129.184 37.416 128.44 38.168 127.464 38.712C126.504 39.256 125.352 39.528 124.008 39.528C122.216 39.528 120.728 39.104 119.544 38.256C118.36 37.424 117.688 36.288 117.528 34.848H120.24C120.448 35.536 120.888 36.088 121.56 36.504C122.248 36.936 123.064 37.152 124.008 37.152C125.112 37.152 126 36.816 126.672 36.144C127.36 35.472 127.704 34.496 127.704 33.216V31.008C127.24 31.632 126.608 32.16 125.808 32.592C125.024 33.008 124.128 33.216 123.12 33.216C121.968 33.216 120.912 32.928 119.952 32.352C119.008 31.76 118.256 30.944 117.696 29.904C117.152 28.848 116.88 27.656 116.88 26.328C116.88 25 117.152 23.824 117.696 22.8C118.256 21.776 119.008 20.984 119.952 20.424C120.912 19.848 121.968 19.56 123.12 19.56ZM127.704 26.376C127.704 25.464 127.512 24.672 127.128 24C126.76 23.328 126.272 22.816 125.664 22.464C125.056 22.112 124.4 21.936 123.696 21.936C122.992 21.936 122.336 22.112 121.728 22.464C121.12 22.8 120.624 23.304 120.24 23.976C119.872 24.632 119.688 25.416 119.688 26.328C119.688 27.24 119.872 28.04 120.24 28.728C120.624 29.416 121.12 29.944 121.728 30.312C122.352 30.664 123.008 30.84 123.696 30.84C124.4 30.84 125.056 30.664 125.664 30.312C126.272 29.96 126.76 29.448 127.128 28.776C127.512 28.088 127.704 27.288 127.704 26.376Z" fill="#FF9770" fill-opacity="0.5"/>
<path d="M30.776 18.776V32H28.04V30.44C27.608 30.984 27.04 31.416 26.336 31.736C25.648 32.04 24.912 32.192 24.128 32.192C23.088 32.192 22.152 31.976 21.32 31.544C20.504 31.112 19.856 30.472 19.376 29.624C18.912 28.776 18.68 27.752 18.68 26.552V18.776H21.392V26.144C21.392 27.328 21.688 28.24 22.28 28.88C22.872 29.504 23.68 29.816 24.704 29.816C25.728 29.816 26.536 29.504 27.128 28.88C27.736 28.24 28.04 27.328 28.04 26.144V18.776H30.776ZM39.8339 15.32C41.6099 15.32 43.1619 15.664 44.4899 16.352C45.8339 17.024 46.8659 18 47.5859 19.28C48.3219 20.544 48.6899 22.024 48.6899 23.72C48.6899 25.416 48.3219 26.888 47.5859 28.136C46.8659 29.384 45.8339 30.344 44.4899 31.016C43.1619 31.672 41.6099 32 39.8339 32H34.3859V15.32H39.8339ZM39.8339 29.768C41.7859 29.768 43.2819 29.24 44.3219 28.184C45.3619 27.128 45.8819 25.64 45.8819 23.72C45.8819 21.784 45.3619 20.272 44.3219 19.184C43.2819 18.096 41.7859 17.552 39.8339 17.552H37.1219V29.768H39.8339ZM63.5216 25.064C63.5216 25.56 63.4896 26.008 63.4256 26.408H53.3216C53.4016 27.464 53.7936 28.312 54.4976 28.952C55.2016 29.592 56.0656 29.912 57.0896 29.912C58.5616 29.912 59.6016 29.296 60.2096 28.064H63.1616C62.7616 29.28 62.0336 30.28 60.9776 31.064C59.9376 31.832 58.6416 32.216 57.0896 32.216C55.8256 32.216 54.6896 31.936 53.6816 31.376C52.6896 30.8 51.9056 30 51.3296 28.976C50.7696 27.936 50.4896 26.736 50.4896 25.376C50.4896 24.016 50.7616 22.824 51.3056 21.8C51.8656 20.76 52.6416 19.96 53.6336 19.4C54.6416 18.84 55.7936 18.56 57.0896 18.56C58.3376 18.56 59.4496 18.832 60.4256 19.376C61.4016 19.92 62.1616 20.688 62.7056 21.68C63.2496 22.656 63.5216 23.784 63.5216 25.064ZM60.6656 24.2C60.6496 23.192 60.2896 22.384 59.5856 21.776C58.8816 21.168 58.0096 20.864 56.9696 20.864C56.0256 20.864 55.2176 21.168 54.5456 21.776C53.8736 22.368 53.4736 23.176 53.3456 24.2H60.6656ZM71.3261 29.552L75.0701 18.776H77.9741L72.9341 32H69.6701L64.6541 18.776H67.5821L71.3261 29.552ZM88.9702 23.432C89.8662 23.592 90.6262 24.064 91.2502 24.848C91.8742 25.632 92.1862 26.52 92.1862 27.512C92.1862 28.36 91.9622 29.128 91.5142 29.816C91.0822 30.488 90.4502 31.024 89.6182 31.424C88.7862 31.808 87.8182 32 86.7142 32H80.0422V15.32H86.4022C87.5382 15.32 88.5142 15.512 89.3302 15.896C90.1462 16.28 90.7622 16.8 91.1782 17.456C91.5942 18.096 91.8022 18.816 91.8022 19.616C91.8022 20.576 91.5462 21.376 91.0342 22.016C90.5222 22.656 89.8342 23.128 88.9702 23.432ZM82.7782 22.328H86.1622C87.0582 22.328 87.7542 22.128 88.2502 21.728C88.7622 21.312 89.0182 20.72 89.0182 19.952C89.0182 19.2 88.7622 18.616 88.2502 18.2C87.7542 17.768 87.0582 17.552 86.1622 17.552H82.7782V22.328ZM86.4742 29.768C87.4022 29.768 88.1302 29.544 88.6582 29.096C89.1862 28.648 89.4502 28.024 89.4502 27.224C89.4502 26.408 89.1702 25.76 88.6102 25.28C88.0502 24.8 87.3062 24.56 86.3782 24.56H82.7782V29.768H86.4742ZM97.8954 14.24V32H95.1594V14.24H97.8954ZM107.224 32.216C105.976 32.216 104.848 31.936 103.84 31.376C102.832 30.8 102.04 30 101.464 28.976C100.888 27.936 100.6 26.736 100.6 25.376C100.6 24.032 100.896 22.84 101.488 21.8C102.08 20.76 102.888 19.96 103.912 19.4C104.936 18.84 106.08 18.56 107.344 18.56C108.608 18.56 109.752 18.84 110.776 19.4C111.8 19.96 112.608 20.76 113.2 21.8C113.792 22.84 114.088 24.032 114.088 25.376C114.088 26.72 113.784 27.912 113.176 28.952C112.568 29.992 111.736 30.8 110.68 31.376C109.64 31.936 108.488 32.216 107.224 32.216ZM107.224 29.84C107.928 29.84 108.584 29.672 109.192 29.336C109.816 29 110.32 28.496 110.704 27.824C111.088 27.152 111.28 26.336 111.28 25.376C111.28 24.416 111.096 23.608 110.728 22.952C110.36 22.28 109.872 21.776 109.264 21.44C108.656 21.104 108 20.936 107.296 20.936C106.592 20.936 105.936 21.104 105.328 21.44C104.736 21.776 104.264 22.28 103.912 22.952C103.56 23.608 103.384 24.416 103.384 25.376C103.384 26.8 103.744 27.904 104.464 28.688C105.2 29.456 106.12 29.84 107.224 29.84ZM122.12 18.56C123.144 18.56 124.048 18.768 124.832 19.184C125.632 19.584 126.256 20.088 126.704 20.696V18.776H129.464V32.216C129.464 33.432 129.208 34.512 128.696 35.456C128.184 36.416 127.44 37.168 126.464 37.712C125.504 38.256 124.352 38.528 123.008 38.528C121.216 38.528 119.728 38.104 118.544 37.256C117.36 36.424 116.688 35.288 116.528 33.848H119.24C119.448 34.536 119.888 35.088 120.56 35.504C121.248 35.936 122.064 36.152 123.008 36.152C124.112 36.152 125 35.816 125.672 35.144C126.36 34.472 126.704 33.496 126.704 32.216V30.008C126.24 30.632 125.608 31.16 124.808 31.592C124.024 32.008 123.128 32.216 122.12 32.216C120.968 32.216 119.912 31.928 118.952 31.352C118.008 30.76 117.256 29.944 116.696 28.904C116.152 27.848 115.88 26.656 115.88 25.328C115.88 24 116.152 22.824 116.696 21.8C117.256 20.776 118.008 19.984 118.952 19.424C119.912 18.848 120.968 18.56 122.12 18.56ZM126.704 25.376C126.704 24.464 126.512 23.672 126.128 23C125.76 22.328 125.272 21.816 124.664 21.464C124.056 21.112 123.4 20.936 122.696 20.936C121.992 20.936 121.336 21.112 120.728 21.464C120.12 21.8 119.624 22.304 119.24 22.976C118.872 23.632 118.688 24.416 118.688 25.328C118.688 26.24 118.872 27.04 119.24 27.728C119.624 28.416 120.12 28.944 120.728 29.312C121.352 29.664 122.008 29.84 122.696 29.84C123.4 29.84 124.056 29.664 124.664 29.312C125.272 28.96 125.76 28.448 126.128 27.776C126.512 27.088 126.704 26.288 126.704 25.376Z" fill="black"/>
<g filter="url(#filter0_i)">
<path d="M76 134.842C74.6536 134.844 73.3295 134.497 72.1563 133.837L39.3434 115.291C38.1397 114.609 37.1384 113.62 36.4413 112.425C35.7442 111.231 35.3762 109.872 35.375 108.489V71.511C35.3762 70.1278 35.7441 68.7696 36.4411 67.5749C37.1382 66.3802 38.1395 65.3916 39.343 64.7098L72.1555 46.1633C73.3296 45.5043 74.6534 45.1581 75.9998 45.1581C77.3462 45.1581 78.67 45.5043 79.8441 46.1633L112.657 64.7094C113.86 65.3912 114.862 66.3799 115.559 67.5747C116.256 68.7695 116.624 70.1277 116.625 71.511V108.489C116.624 109.872 116.256 111.23 115.559 112.425C114.862 113.62 113.861 114.609 112.657 115.29L79.8445 133.837C78.671 134.497 77.3467 134.844 76 134.842V134.842ZM44.75 107.578L76 125.241L107.25 107.578V72.4219L76 54.759L44.75 72.4219V107.578Z" fill="#F25C54"/>
</g>
<path d="M54.5635 102.475C54.5214 102.404 54.5002 102.325 54.5 102.245V78.7546C54.5002 78.6753 54.5214 78.5961 54.5634 78.5246C54.6056 78.4529 54.6679 78.3904 54.7466 78.346C54.7469 78.3458 54.7471 78.3457 54.7474 78.3455L75.7352 66.5683C75.7361 66.5678 75.7369 66.5674 75.7377 66.5669C75.8165 66.5236 75.9068 66.5 76 66.5C76.0932 66.5 76.1835 66.5236 76.2623 66.5669C76.2631 66.5674 76.2639 66.5678 76.2648 66.5683L97.2525 78.3454C97.2529 78.3457 97.2533 78.3459 97.2537 78.3461C97.3322 78.3906 97.3945 78.453 97.4365 78.5246C97.4787 78.5964 97.4999 78.676 97.5 78.7555V102.245C97.4999 102.324 97.4787 102.404 97.4366 102.475C97.3944 102.547 97.3321 102.61 97.2534 102.654C97.2531 102.654 97.2529 102.654 97.2526 102.655L76.2649 114.432C76.264 114.432 76.2631 114.433 76.2622 114.433C76.1835 114.476 76.0932 114.5 76 114.5C75.9068 114.5 75.8165 114.476 75.7378 114.433C75.7369 114.433 75.736 114.432 75.7351 114.432L54.7475 102.655C54.6684 102.61 54.6058 102.547 54.5635 102.475Z" fill="#FF9667" stroke="#FCE6B7" stroke-width="7"/>
<defs>
<filter id="filter0_i" x="35.375" y="45.1581" width="81.25" height="93.6837" filterUnits="userSpaceOnUse" color-interpolation-filters="sRGB">
<feFlood flood-opacity="0" result="BackgroundImageFix"/>
<feBlend mode="normal" in="SourceGraphic" in2="BackgroundImageFix" result="shape"/>
<feColorMatrix in="SourceAlpha" type="matrix" values="0 0 0 0 0 0 0 0 0 0 0 0 0 0 0 0 0 0 127 0" result="hardAlpha"/>
<feOffset dy="4"/>
<feGaussianBlur stdDeviation="2"/>
<feComposite in2="hardAlpha" operator="arithmetic" k2="-1" k3="1"/>
<feColorMatrix type="matrix" values="0 0 0 0 1 0 0 0 0 0.588235 0 0 0 0 0.403922 0 0 0 0.5 0"/>
<feBlend mode="normal" in2="shape" result="effect1_innerShadow"/>
</filter>
</defs>
</svg>
