<svg width="229" height="101" viewBox="0 0 229 101" fill="none" xmlns="http://www.w3.org/2000/svg">
<rect width="229" height="100" rx="10" fill="white"/>
<path d="M113.924 49.674V64H110.96V62.31C110.492 62.8993 109.877 63.3673 109.114 63.714C108.369 64.0433 107.571 64.208 106.722 64.208C105.595 64.208 104.581 63.974 103.68 63.506C102.796 63.038 102.094 62.3447 101.574 61.426C101.071 60.5073 100.82 59.398 100.82 58.098V49.674H103.758V57.656C103.758 58.9387 104.079 59.9267 104.72 60.62C105.361 61.296 106.237 61.634 107.346 61.634C108.455 61.634 109.331 61.296 109.972 60.62C110.631 59.9267 110.96 58.9387 110.96 57.656V49.674H113.924ZM123.737 45.93C125.661 45.93 127.342 46.3027 128.781 47.048C130.237 47.776 131.355 48.8333 132.135 50.22C132.932 51.5893 133.331 53.1927 133.331 55.03C133.331 56.8673 132.932 58.462 132.135 59.814C131.355 61.166 130.237 62.206 128.781 62.934C127.342 63.6447 125.661 64 123.737 64H117.835V45.93H123.737ZM123.737 61.582C125.851 61.582 127.472 61.01 128.599 59.866C129.725 58.722 130.289 57.11 130.289 55.03C130.289 52.9327 129.725 51.2947 128.599 50.116C127.472 48.9373 125.851 48.348 123.737 48.348H120.799V61.582H123.737ZM149.398 56.486C149.398 57.0233 149.364 57.5087 149.294 57.942H138.348C138.435 59.086 138.86 60.0047 139.622 60.698C140.385 61.3913 141.321 61.738 142.43 61.738C144.025 61.738 145.152 61.0707 145.81 59.736H149.008C148.575 61.0533 147.786 62.1367 146.642 62.986C145.516 63.818 144.112 64.234 142.43 64.234C141.061 64.234 139.83 63.9307 138.738 63.324C137.664 62.7 136.814 61.8333 136.19 60.724C135.584 59.5973 135.28 58.2973 135.28 56.824C135.28 55.3507 135.575 54.0593 136.164 52.95C136.771 51.8233 137.612 50.9567 138.686 50.35C139.778 49.7433 141.026 49.44 142.43 49.44C143.782 49.44 144.987 49.7347 146.044 50.324C147.102 50.9133 147.925 51.7453 148.514 52.82C149.104 53.8773 149.398 55.0993 149.398 56.486ZM146.304 55.55C146.287 54.458 145.897 53.5827 145.134 52.924C144.372 52.2653 143.427 51.936 142.3 51.936C141.278 51.936 140.402 52.2653 139.674 52.924C138.946 53.5653 138.513 54.4407 138.374 55.55H146.304ZM157.853 61.348L161.909 49.674H165.055L159.595 64H156.059L150.625 49.674H153.797L157.853 61.348ZM176.968 54.718C177.938 54.8913 178.762 55.4027 179.438 56.252C180.114 57.1013 180.452 58.0633 180.452 59.138C180.452 60.0567 180.209 60.8887 179.724 61.634C179.256 62.362 178.571 62.9427 177.67 63.376C176.768 63.792 175.72 64 174.524 64H167.296V45.93H174.186C175.416 45.93 176.474 46.138 177.358 46.554C178.242 46.97 178.909 47.5333 179.36 48.244C179.81 48.9373 180.036 49.7173 180.036 50.584C180.036 51.624 179.758 52.4907 179.204 53.184C178.649 53.8773 177.904 54.3887 176.968 54.718ZM170.26 53.522H173.926C174.896 53.522 175.65 53.3053 176.188 52.872C176.742 52.4213 177.02 51.78 177.02 50.948C177.02 50.1333 176.742 49.5007 176.188 49.05C175.65 48.582 174.896 48.348 173.926 48.348H170.26V53.522ZM174.264 61.582C175.269 61.582 176.058 61.3393 176.63 60.854C177.202 60.3687 177.488 59.6927 177.488 58.826C177.488 57.942 177.184 57.24 176.578 56.72C175.971 56.2 175.165 55.94 174.16 55.94H170.26V61.582H174.264ZM186.637 44.76V64H183.673V44.76H186.637ZM196.742 64.234C195.39 64.234 194.168 63.9307 193.076 63.324C191.984 62.7 191.126 61.8333 190.502 60.724C189.878 59.5973 189.566 58.2973 189.566 56.824C189.566 55.368 189.887 54.0767 190.528 52.95C191.169 51.8233 192.045 50.9567 193.154 50.35C194.263 49.7433 195.503 49.44 196.872 49.44C198.241 49.44 199.481 49.7433 200.59 50.35C201.699 50.9567 202.575 51.8233 203.216 52.95C203.857 54.0767 204.178 55.368 204.178 56.824C204.178 58.28 203.849 59.5713 203.19 60.698C202.531 61.8247 201.63 62.7 200.486 63.324C199.359 63.9307 198.111 64.234 196.742 64.234ZM196.742 61.66C197.505 61.66 198.215 61.478 198.874 61.114C199.55 60.75 200.096 60.204 200.512 59.476C200.928 58.748 201.136 57.864 201.136 56.824C201.136 55.784 200.937 54.9087 200.538 54.198C200.139 53.47 199.611 52.924 198.952 52.56C198.293 52.196 197.583 52.014 196.82 52.014C196.057 52.014 195.347 52.196 194.688 52.56C194.047 52.924 193.535 53.47 193.154 54.198C192.773 54.9087 192.582 55.784 192.582 56.824C192.582 58.3667 192.972 59.5627 193.752 60.412C194.549 61.244 195.546 61.66 196.742 61.66ZM212.88 49.44C213.99 49.44 214.969 49.6653 215.818 50.116C216.685 50.5493 217.361 51.0953 217.846 51.754V49.674H220.836V64.234C220.836 65.5513 220.559 66.7213 220.004 67.744C219.45 68.784 218.644 69.5987 217.586 70.188C216.546 70.7773 215.298 71.072 213.842 71.072C211.901 71.072 210.289 70.6127 209.006 69.694C207.724 68.7927 206.996 67.562 206.822 66.002H209.76C209.986 66.7473 210.462 67.3453 211.19 67.796C211.936 68.264 212.82 68.498 213.842 68.498C215.038 68.498 216 68.134 216.728 67.406C217.474 66.678 217.846 65.6207 217.846 64.234V61.842C217.344 62.518 216.659 63.09 215.792 63.558C214.943 64.0087 213.972 64.234 212.88 64.234C211.632 64.234 210.488 63.922 209.448 63.298C208.426 62.6567 207.611 61.7727 207.004 60.646C206.415 59.502 206.12 58.2107 206.12 56.772C206.12 55.3333 206.415 54.0593 207.004 52.95C207.611 51.8407 208.426 50.9827 209.448 50.376C210.488 49.752 211.632 49.44 212.88 49.44ZM217.846 56.824C217.846 55.836 217.638 54.978 217.222 54.25C216.824 53.522 216.295 52.9673 215.636 52.586C214.978 52.2047 214.267 52.014 213.504 52.014C212.742 52.014 212.031 52.2047 211.372 52.586C210.714 52.95 210.176 53.496 209.76 54.224C209.362 54.9347 209.162 55.784 209.162 56.772C209.162 57.76 209.362 58.6267 209.76 59.372C210.176 60.1173 210.714 60.6893 211.372 61.088C212.048 61.4693 212.759 61.66 213.504 61.66C214.267 61.66 214.978 61.4693 215.636 61.088C216.295 60.7067 216.824 60.152 217.222 59.424C217.638 58.6787 217.846 57.812 217.846 56.824Z" fill="#FF9770" fill-opacity="0.5"/>
<path d="M111.924 47.674V62H108.96V60.31C108.492 60.8993 107.877 61.3673 107.114 61.714C106.369 62.0433 105.571 62.208 104.722 62.208C103.595 62.208 102.581 61.974 101.68 61.506C100.796 61.038 100.094 60.3447 99.574 59.426C99.0713 58.5073 98.82 57.398 98.82 56.098V47.674H101.758V55.656C101.758 56.9387 102.079 57.9267 102.72 58.62C103.361 59.296 104.237 59.634 105.346 59.634C106.455 59.634 107.331 59.296 107.972 58.62C108.631 57.9267 108.96 56.9387 108.96 55.656V47.674H111.924ZM121.737 43.93C123.661 43.93 125.342 44.3027 126.781 45.048C128.237 45.776 129.355 46.8333 130.135 48.22C130.932 49.5893 131.331 51.1927 131.331 53.03C131.331 54.8673 130.932 56.462 130.135 57.814C129.355 59.166 128.237 60.206 126.781 60.934C125.342 61.6447 123.661 62 121.737 62H115.835V43.93H121.737ZM121.737 59.582C123.851 59.582 125.472 59.01 126.599 57.866C127.725 56.722 128.289 55.11 128.289 53.03C128.289 50.9327 127.725 49.2947 126.599 48.116C125.472 46.9373 123.851 46.348 121.737 46.348H118.799V59.582H121.737ZM147.398 54.486C147.398 55.0233 147.364 55.5087 147.294 55.942H136.348C136.435 57.086 136.86 58.0047 137.622 58.698C138.385 59.3913 139.321 59.738 140.43 59.738C142.025 59.738 143.152 59.0707 143.81 57.736H147.008C146.575 59.0533 145.786 60.1367 144.642 60.986C143.516 61.818 142.112 62.234 140.43 62.234C139.061 62.234 137.83 61.9307 136.738 61.324C135.664 60.7 134.814 59.8333 134.19 58.724C133.584 57.5973 133.28 56.2973 133.28 54.824C133.28 53.3507 133.575 52.0593 134.164 50.95C134.771 49.8233 135.612 48.9567 136.686 48.35C137.778 47.7433 139.026 47.44 140.43 47.44C141.782 47.44 142.987 47.7347 144.044 48.324C145.102 48.9133 145.925 49.7453 146.514 50.82C147.104 51.8773 147.398 53.0993 147.398 54.486ZM144.304 53.55C144.287 52.458 143.897 51.5827 143.134 50.924C142.372 50.2653 141.427 49.936 140.3 49.936C139.278 49.936 138.402 50.2653 137.674 50.924C136.946 51.5653 136.513 52.4407 136.374 53.55H144.304ZM155.853 59.348L159.909 47.674H163.055L157.595 62H154.059L148.625 47.674H151.797L155.853 59.348ZM174.968 52.718C175.938 52.8913 176.762 53.4027 177.438 54.252C178.114 55.1013 178.452 56.0633 178.452 57.138C178.452 58.0567 178.209 58.8887 177.724 59.634C177.256 60.362 176.571 60.9427 175.67 61.376C174.768 61.792 173.72 62 172.524 62H165.296V43.93H172.186C173.416 43.93 174.474 44.138 175.358 44.554C176.242 44.97 176.909 45.5333 177.36 46.244C177.81 46.9373 178.036 47.7173 178.036 48.584C178.036 49.624 177.758 50.4907 177.204 51.184C176.649 51.8773 175.904 52.3887 174.968 52.718ZM168.26 51.522H171.926C172.896 51.522 173.65 51.3053 174.188 50.872C174.742 50.4213 175.02 49.78 175.02 48.948C175.02 48.1333 174.742 47.5007 174.188 47.05C173.65 46.582 172.896 46.348 171.926 46.348H168.26V51.522ZM172.264 59.582C173.269 59.582 174.058 59.3393 174.63 58.854C175.202 58.3687 175.488 57.6927 175.488 56.826C175.488 55.942 175.184 55.24 174.578 54.72C173.971 54.2 173.165 53.94 172.16 53.94H168.26V59.582H172.264ZM184.637 42.76V62H181.673V42.76H184.637ZM194.742 62.234C193.39 62.234 192.168 61.9307 191.076 61.324C189.984 60.7 189.126 59.8333 188.502 58.724C187.878 57.5973 187.566 56.2973 187.566 54.824C187.566 53.368 187.887 52.0767 188.528 50.95C189.169 49.8233 190.045 48.9567 191.154 48.35C192.263 47.7433 193.503 47.44 194.872 47.44C196.241 47.44 197.481 47.7433 198.59 48.35C199.699 48.9567 200.575 49.8233 201.216 50.95C201.857 52.0767 202.178 53.368 202.178 54.824C202.178 56.28 201.849 57.5713 201.19 58.698C200.531 59.8247 199.63 60.7 198.486 61.324C197.359 61.9307 196.111 62.234 194.742 62.234ZM194.742 59.66C195.505 59.66 196.215 59.478 196.874 59.114C197.55 58.75 198.096 58.204 198.512 57.476C198.928 56.748 199.136 55.864 199.136 54.824C199.136 53.784 198.937 52.9087 198.538 52.198C198.139 51.47 197.611 50.924 196.952 50.56C196.293 50.196 195.583 50.014 194.82 50.014C194.057 50.014 193.347 50.196 192.688 50.56C192.047 50.924 191.535 51.47 191.154 52.198C190.773 52.9087 190.582 53.784 190.582 54.824C190.582 56.3667 190.972 57.5627 191.752 58.412C192.549 59.244 193.546 59.66 194.742 59.66ZM210.88 47.44C211.99 47.44 212.969 47.6653 213.818 48.116C214.685 48.5493 215.361 49.0953 215.846 49.754V47.674H218.836V62.234C218.836 63.5513 218.559 64.7213 218.004 65.744C217.45 66.784 216.644 67.5987 215.586 68.188C214.546 68.7773 213.298 69.072 211.842 69.072C209.901 69.072 208.289 68.6127 207.006 67.694C205.724 66.7927 204.996 65.562 204.822 64.002H207.76C207.986 64.7473 208.462 65.3453 209.19 65.796C209.936 66.264 210.82 66.498 211.842 66.498C213.038 66.498 214 66.134 214.728 65.406C215.474 64.678 215.846 63.6207 215.846 62.234V59.842C215.344 60.518 214.659 61.09 213.792 61.558C212.943 62.0087 211.972 62.234 210.88 62.234C209.632 62.234 208.488 61.922 207.448 61.298C206.426 60.6567 205.611 59.7727 205.004 58.646C204.415 57.502 204.12 56.2107 204.12 54.772C204.12 53.3333 204.415 52.0593 205.004 50.95C205.611 49.8407 206.426 48.9827 207.448 48.376C208.488 47.752 209.632 47.44 210.88 47.44ZM215.846 54.824C215.846 53.836 215.638 52.978 215.222 52.25C214.824 51.522 214.295 50.9673 213.636 50.586C212.978 50.2047 212.267 50.014 211.504 50.014C210.742 50.014 210.031 50.2047 209.372 50.586C208.714 50.95 208.176 51.496 207.76 52.224C207.362 52.9347 207.162 53.784 207.162 54.772C207.162 55.76 207.362 56.6267 207.76 57.372C208.176 58.1173 208.714 58.6893 209.372 59.088C210.048 59.4693 210.759 59.66 211.504 59.66C212.267 59.66 212.978 59.4693 213.636 59.088C214.295 58.7067 214.824 58.152 215.222 57.424C215.638 56.6787 215.846 55.812 215.846 54.824Z" fill="black"/>
<g filter="url(#filter0_i)">
<path d="M50 95.8418C48.6536 95.8436 47.3295 95.4973 46.1563 94.8368L13.3434 76.2907C12.1397 75.6089 11.1384 74.6202 10.4413 73.4254C9.74416 72.2306 9.37624 70.8724 9.375 69.4891V32.511C9.37623 31.1278 9.74411 29.7696 10.4411 28.5749C11.1382 27.3802 12.1395 26.3916 13.343 25.7098L46.1555 7.16332C47.3296 6.50427 48.6534 6.15813 49.9998 6.15813C51.3462 6.15813 52.67 6.50427 53.8441 7.16332L86.6566 25.7094C87.8603 26.3912 88.8616 27.3798 89.5587 28.5746C90.2558 29.7694 90.6238 31.1277 90.625 32.511V69.4891C90.6238 70.8723 90.2559 72.2305 89.5589 73.4252C88.8618 74.6199 87.8605 75.6085 86.657 76.2903L53.8445 94.8368C52.671 95.4974 51.3467 95.8436 50 95.8418V95.8418ZM18.75 68.5778L50 86.2407L81.25 68.5782V33.4219L50 15.759L18.75 33.4219V68.5778Z" fill="#F25C54"/>
</g>
<path d="M28.5635 63.4754C28.5214 63.4039 28.5002 63.3246 28.5 63.2453V39.7546C28.5002 39.6753 28.5214 39.5961 28.5634 39.5246C28.6056 39.4529 28.6679 39.3904 28.7466 39.346C28.7469 39.3458 28.7471 39.3457 28.7474 39.3455L49.7352 27.5683C49.7361 27.5678 49.7369 27.5674 49.7377 27.5669C49.8165 27.5236 49.9068 27.5 50 27.5C50.0932 27.5 50.1835 27.5236 50.2623 27.5669C50.2631 27.5674 50.2639 27.5678 50.2648 27.5683L71.2525 39.3454C71.2529 39.3457 71.2533 39.3459 71.2537 39.3461C71.3322 39.3906 71.3945 39.453 71.4365 39.5246C71.4787 39.5964 71.4999 39.676 71.5 39.7555V63.2447C71.4999 63.3242 71.4787 63.4037 71.4366 63.4754C71.3944 63.5471 71.3321 63.6096 71.2534 63.6541C71.2531 63.6542 71.2529 63.6544 71.2526 63.6545L50.2649 75.4317C50.264 75.4322 50.2631 75.4326 50.2622 75.4331C50.1835 75.4764 50.0932 75.5 50 75.5C49.9068 75.5 49.8165 75.4764 49.7378 75.4331C49.7369 75.4326 49.736 75.4322 49.7351 75.4317L28.7475 63.6546C28.6684 63.6101 28.6058 63.5474 28.5635 63.4754Z" fill="#FF9667" stroke="#FCE6B7" stroke-width="7"/>
<defs>
<filter id="filter0_i" x="9.375" y="6.15813" width="81.25" height="93.6837" filterUnits="userSpaceOnUse" color-interpolation-filters="sRGB">
<feFlood flood-opacity="0" result="BackgroundImageFix"/>
<feBlend mode="normal" in="SourceGraphic" in2="BackgroundImageFix" result="shape"/>
<feColorMatrix in="SourceAlpha" type="matrix" values="0 0 0 0 0 0 0 0 0 0 0 0 0 0 0 0 0 0 127 0" result="hardAlpha"/>
<feOffset dy="4"/>
<feGaussianBlur stdDeviation="2"/>
<feComposite in2="hardAlpha" operator="arithmetic" k2="-1" k3="1"/>
<feColorMatrix type="matrix" values="0 0 0 0 1 0 0 0 0 0.588235 0 0 0 0 0.403922 0 0 0 0.5 0"/>
<feBlend mode="normal" in2="shape" result="effect1_innerShadow"/>
</filter>
</defs>
</svg>
