<svg width="116" height="134" viewBox="0 0 116 134" fill="none" xmlns="http://www.w3.org/2000/svg">
<path d="M14.776 13.776V27H12.04V25.44C11.608 25.984 11.04 26.416 10.336 26.736C9.648 27.04 8.912 27.192 8.128 27.192C7.088 27.192 6.152 26.976 5.32 26.544C4.504 26.112 3.856 25.472 3.376 24.624C2.912 23.776 2.68 22.752 2.68 21.552V13.776H5.392V21.144C5.392 22.328 5.688 23.24 6.28 23.88C6.872 24.504 7.68 24.816 8.704 24.816C9.728 24.816 10.536 24.504 11.128 23.88C11.736 23.24 12.04 22.328 12.04 21.144V13.776H14.776ZM23.8339 10.32C25.6099 10.32 27.1619 10.664 28.4899 11.352C29.8339 12.024 30.8659 13 31.5859 14.28C32.3219 15.544 32.6899 17.024 32.6899 18.72C32.6899 20.416 32.3219 21.888 31.5859 23.136C30.8659 24.384 29.8339 25.344 28.4899 26.016C27.1619 26.672 25.6099 27 23.8339 27H18.3859V10.32H23.8339ZM23.8339 24.768C25.7859 24.768 27.2819 24.24 28.3219 23.184C29.3619 22.128 29.8819 20.64 29.8819 18.72C29.8819 16.784 29.3619 15.272 28.3219 14.184C27.2819 13.096 25.7859 12.552 23.8339 12.552H21.1219V24.768H23.8339ZM47.5216 20.064C47.5216 20.56 47.4896 21.008 47.4256 21.408H37.3216C37.4016 22.464 37.7936 23.312 38.4976 23.952C39.2016 24.592 40.0656 24.912 41.0896 24.912C42.5616 24.912 43.6016 24.296 44.2096 23.064H47.1616C46.7616 24.28 46.0336 25.28 44.9776 26.064C43.9376 26.832 42.6416 27.216 41.0896 27.216C39.8256 27.216 38.6896 26.936 37.6816 26.376C36.6896 25.8 35.9056 25 35.3296 23.976C34.7696 22.936 34.4896 21.736 34.4896 20.376C34.4896 19.016 34.7616 17.824 35.3056 16.8C35.8656 15.76 36.6416 14.96 37.6336 14.4C38.6416 13.84 39.7936 13.56 41.0896 13.56C42.3376 13.56 43.4496 13.832 44.4256 14.376C45.4016 14.92 46.1616 15.688 46.7056 16.68C47.2496 17.656 47.5216 18.784 47.5216 20.064ZM44.6656 19.2C44.6496 18.192 44.2896 17.384 43.5856 16.776C42.8816 16.168 42.0096 15.864 40.9696 15.864C40.0256 15.864 39.2176 16.168 38.5456 16.776C37.8736 17.368 37.4736 18.176 37.3456 19.2H44.6656ZM55.3261 24.552L59.0701 13.776H61.9741L56.9341 27H53.6701L48.6541 13.776H51.5821L55.3261 24.552ZM72.9702 18.432C73.8662 18.592 74.6262 19.064 75.2502 19.848C75.8742 20.632 76.1862 21.52 76.1862 22.512C76.1862 23.36 75.9622 24.128 75.5142 24.816C75.0822 25.488 74.4502 26.024 73.6182 26.424C72.7862 26.808 71.8182 27 70.7142 27H64.0422V10.32H70.4022C71.5382 10.32 72.5142 10.512 73.3302 10.896C74.1462 11.28 74.7622 11.8 75.1782 12.456C75.5942 13.096 75.8022 13.816 75.8022 14.616C75.8022 15.576 75.5462 16.376 75.0342 17.016C74.5222 17.656 73.8342 18.128 72.9702 18.432ZM66.7782 17.328H70.1622C71.0582 17.328 71.7542 17.128 72.2502 16.728C72.7622 16.312 73.0182 15.72 73.0182 14.952C73.0182 14.2 72.7622 13.616 72.2502 13.2C71.7542 12.768 71.0582 12.552 70.1622 12.552H66.7782V17.328ZM70.4742 24.768C71.4022 24.768 72.1302 24.544 72.6582 24.096C73.1862 23.648 73.4502 23.024 73.4502 22.224C73.4502 21.408 73.1702 20.76 72.6102 20.28C72.0502 19.8 71.3062 19.56 70.3782 19.56H66.7782V24.768H70.4742ZM81.8954 9.24V27H79.1594V9.24H81.8954ZM91.2235 27.216C89.9755 27.216 88.8475 26.936 87.8395 26.376C86.8315 25.8 86.0395 25 85.4635 23.976C84.8875 22.936 84.5995 21.736 84.5995 20.376C84.5995 19.032 84.8955 17.84 85.4875 16.8C86.0795 15.76 86.8875 14.96 87.9115 14.4C88.9355 13.84 90.0795 13.56 91.3435 13.56C92.6075 13.56 93.7515 13.84 94.7755 14.4C95.7995 14.96 96.6075 15.76 97.1995 16.8C97.7915 17.84 98.0875 19.032 98.0875 20.376C98.0875 21.72 97.7835 22.912 97.1755 23.952C96.5675 24.992 95.7355 25.8 94.6795 26.376C93.6395 26.936 92.4875 27.216 91.2235 27.216ZM91.2235 24.84C91.9275 24.84 92.5835 24.672 93.1915 24.336C93.8155 24 94.3195 23.496 94.7035 22.824C95.0875 22.152 95.2795 21.336 95.2795 20.376C95.2795 19.416 95.0955 18.608 94.7275 17.952C94.3595 17.28 93.8715 16.776 93.2635 16.44C92.6555 16.104 91.9995 15.936 91.2955 15.936C90.5915 15.936 89.9355 16.104 89.3275 16.44C88.7355 16.776 88.2635 17.28 87.9115 17.952C87.5595 18.608 87.3835 19.416 87.3835 20.376C87.3835 21.8 87.7435 22.904 88.4635 23.688C89.1995 24.456 90.1195 24.84 91.2235 24.84ZM106.12 13.56C107.144 13.56 108.048 13.768 108.832 14.184C109.632 14.584 110.256 15.088 110.704 15.696V13.776H113.464V27.216C113.464 28.432 113.208 29.512 112.696 30.456C112.184 31.416 111.44 32.168 110.464 32.712C109.504 33.256 108.352 33.528 107.008 33.528C105.216 33.528 103.728 33.104 102.544 32.256C101.36 31.424 100.688 30.288 100.528 28.848H103.24C103.448 29.536 103.888 30.088 104.56 30.504C105.248 30.936 106.064 31.152 107.008 31.152C108.112 31.152 109 30.816 109.672 30.144C110.36 29.472 110.704 28.496 110.704 27.216V25.008C110.24 25.632 109.608 26.16 108.808 26.592C108.024 27.008 107.128 27.216 106.12 27.216C104.968 27.216 103.912 26.928 102.952 26.352C102.008 25.76 101.256 24.944 100.696 23.904C100.152 22.848 99.8802 21.656 99.8802 20.328C99.8802 19 100.152 17.824 100.696 16.8C101.256 15.776 102.008 14.984 102.952 14.424C103.912 13.848 104.968 13.56 106.12 13.56ZM110.704 20.376C110.704 19.464 110.512 18.672 110.128 18C109.76 17.328 109.272 16.816 108.664 16.464C108.056 16.112 107.4 15.936 106.696 15.936C105.992 15.936 105.336 16.112 104.728 16.464C104.12 16.8 103.624 17.304 103.24 17.976C102.872 18.632 102.688 19.416 102.688 20.328C102.688 21.24 102.872 22.04 103.24 22.728C103.624 23.416 104.12 23.944 104.728 24.312C105.352 24.664 106.008 24.84 106.696 24.84C107.4 24.84 108.056 24.664 108.664 24.312C109.272 23.96 109.76 23.448 110.128 22.776C110.512 22.088 110.704 21.288 110.704 20.376Z" fill="#FF9770" fill-opacity="0.5"/>
<path d="M13.776 12.776V26H11.04V24.44C10.608 24.984 10.04 25.416 9.336 25.736C8.648 26.04 7.912 26.192 7.128 26.192C6.088 26.192 5.152 25.976 4.32 25.544C3.504 25.112 2.856 24.472 2.376 23.624C1.912 22.776 1.68 21.752 1.68 20.552V12.776H4.392V20.144C4.392 21.328 4.688 22.24 5.28 22.88C5.872 23.504 6.68 23.816 7.704 23.816C8.728 23.816 9.536 23.504 10.128 22.88C10.736 22.24 11.04 21.328 11.04 20.144V12.776H13.776ZM22.8339 9.32C24.6099 9.32 26.1619 9.664 27.4899 10.352C28.8339 11.024 29.8659 12 30.5859 13.28C31.3219 14.544 31.6899 16.024 31.6899 17.72C31.6899 19.416 31.3219 20.888 30.5859 22.136C29.8659 23.384 28.8339 24.344 27.4899 25.016C26.1619 25.672 24.6099 26 22.8339 26H17.3859V9.32H22.8339ZM22.8339 23.768C24.7859 23.768 26.2819 23.24 27.3219 22.184C28.3619 21.128 28.8819 19.64 28.8819 17.72C28.8819 15.784 28.3619 14.272 27.3219 13.184C26.2819 12.096 24.7859 11.552 22.8339 11.552H20.1219V23.768H22.8339ZM46.5216 19.064C46.5216 19.56 46.4896 20.008 46.4256 20.408H36.3216C36.4016 21.464 36.7936 22.312 37.4976 22.952C38.2016 23.592 39.0656 23.912 40.0896 23.912C41.5616 23.912 42.6016 23.296 43.2096 22.064H46.1616C45.7616 23.28 45.0336 24.28 43.9776 25.064C42.9376 25.832 41.6416 26.216 40.0896 26.216C38.8256 26.216 37.6896 25.936 36.6816 25.376C35.6896 24.8 34.9056 24 34.3296 22.976C33.7696 21.936 33.4896 20.736 33.4896 19.376C33.4896 18.016 33.7616 16.824 34.3056 15.8C34.8656 14.76 35.6416 13.96 36.6336 13.4C37.6416 12.84 38.7936 12.56 40.0896 12.56C41.3376 12.56 42.4496 12.832 43.4256 13.376C44.4016 13.92 45.1616 14.688 45.7056 15.68C46.2496 16.656 46.5216 17.784 46.5216 19.064ZM43.6656 18.2C43.6496 17.192 43.2896 16.384 42.5856 15.776C41.8816 15.168 41.0096 14.864 39.9696 14.864C39.0256 14.864 38.2176 15.168 37.5456 15.776C36.8736 16.368 36.4736 17.176 36.3456 18.2H43.6656ZM54.3261 23.552L58.0701 12.776H60.9741L55.9341 26H52.6701L47.6541 12.776H50.5821L54.3261 23.552ZM71.9702 17.432C72.8662 17.592 73.6262 18.064 74.2502 18.848C74.8742 19.632 75.1862 20.52 75.1862 21.512C75.1862 22.36 74.9622 23.128 74.5142 23.816C74.0822 24.488 73.4502 25.024 72.6182 25.424C71.7862 25.808 70.8182 26 69.7142 26H63.0422V9.32H69.4022C70.5382 9.32 71.5142 9.512 72.3302 9.896C73.1462 10.28 73.7622 10.8 74.1782 11.456C74.5942 12.096 74.8022 12.816 74.8022 13.616C74.8022 14.576 74.5462 15.376 74.0342 16.016C73.5222 16.656 72.8342 17.128 71.9702 17.432ZM65.7782 16.328H69.1622C70.0582 16.328 70.7542 16.128 71.2502 15.728C71.7622 15.312 72.0182 14.72 72.0182 13.952C72.0182 13.2 71.7622 12.616 71.2502 12.2C70.7542 11.768 70.0582 11.552 69.1622 11.552H65.7782V16.328ZM69.4742 23.768C70.4022 23.768 71.1302 23.544 71.6582 23.096C72.1862 22.648 72.4502 22.024 72.4502 21.224C72.4502 20.408 72.1702 19.76 71.6102 19.28C71.0502 18.8 70.3062 18.56 69.3782 18.56H65.7782V23.768H69.4742ZM80.8954 8.24V26H78.1594V8.24H80.8954ZM90.2235 26.216C88.9755 26.216 87.8475 25.936 86.8395 25.376C85.8315 24.8 85.0395 24 84.4635 22.976C83.8875 21.936 83.5995 20.736 83.5995 19.376C83.5995 18.032 83.8955 16.84 84.4875 15.8C85.0795 14.76 85.8875 13.96 86.9115 13.4C87.9355 12.84 89.0795 12.56 90.3435 12.56C91.6075 12.56 92.7515 12.84 93.7755 13.4C94.7995 13.96 95.6075 14.76 96.1995 15.8C96.7915 16.84 97.0875 18.032 97.0875 19.376C97.0875 20.72 96.7835 21.912 96.1755 22.952C95.5675 23.992 94.7355 24.8 93.6795 25.376C92.6395 25.936 91.4875 26.216 90.2235 26.216ZM90.2235 23.84C90.9275 23.84 91.5835 23.672 92.1915 23.336C92.8155 23 93.3195 22.496 93.7035 21.824C94.0875 21.152 94.2795 20.336 94.2795 19.376C94.2795 18.416 94.0955 17.608 93.7275 16.952C93.3595 16.28 92.8715 15.776 92.2635 15.44C91.6555 15.104 90.9995 14.936 90.2955 14.936C89.5915 14.936 88.9355 15.104 88.3275 15.44C87.7355 15.776 87.2635 16.28 86.9115 16.952C86.5595 17.608 86.3835 18.416 86.3835 19.376C86.3835 20.8 86.7435 21.904 87.4635 22.688C88.1995 23.456 89.1195 23.84 90.2235 23.84ZM105.12 12.56C106.144 12.56 107.048 12.768 107.832 13.184C108.632 13.584 109.256 14.088 109.704 14.696V12.776H112.464V26.216C112.464 27.432 112.208 28.512 111.696 29.456C111.184 30.416 110.44 31.168 109.464 31.712C108.504 32.256 107.352 32.528 106.008 32.528C104.216 32.528 102.728 32.104 101.544 31.256C100.36 30.424 99.6882 29.288 99.5282 27.848H102.24C102.448 28.536 102.888 29.088 103.56 29.504C104.248 29.936 105.064 30.152 106.008 30.152C107.112 30.152 108 29.816 108.672 29.144C109.36 28.472 109.704 27.496 109.704 26.216V24.008C109.24 24.632 108.608 25.16 107.808 25.592C107.024 26.008 106.128 26.216 105.12 26.216C103.968 26.216 102.912 25.928 101.952 25.352C101.008 24.76 100.256 23.944 99.6962 22.904C99.1522 21.848 98.8802 20.656 98.8802 19.328C98.8802 18 99.1522 16.824 99.6962 15.8C100.256 14.776 101.008 13.984 101.952 13.424C102.912 12.848 103.968 12.56 105.12 12.56ZM109.704 19.376C109.704 18.464 109.512 17.672 109.128 17C108.76 16.328 108.272 15.816 107.664 15.464C107.056 15.112 106.4 14.936 105.696 14.936C104.992 14.936 104.336 15.112 103.728 15.464C103.12 15.8 102.624 16.304 102.24 16.976C101.872 17.632 101.688 18.416 101.688 19.328C101.688 20.24 101.872 21.04 102.24 21.728C102.624 22.416 103.12 22.944 103.728 23.312C104.352 23.664 105.008 23.84 105.696 23.84C106.4 23.84 107.056 23.664 107.664 23.312C108.272 22.96 108.76 22.448 109.128 21.776C109.512 21.088 109.704 20.288 109.704 19.376Z" fill="black"/>
<g filter="url(#filter0_i)">
<path d="M59 128.842C57.6536 128.844 56.3295 128.497 55.1563 127.837L22.3434 109.291C21.1397 108.609 20.1384 107.62 19.4413 106.425C18.7442 105.231 18.3762 103.872 18.375 102.489V65.511C18.3762 64.1278 18.7441 62.7696 19.4411 61.5749C20.1382 60.3802 21.1395 59.3916 22.343 58.7098L55.1555 40.1633C56.3296 39.5043 57.6534 39.1581 58.9998 39.1581C60.3462 39.1581 61.67 39.5043 62.8441 40.1633L95.6566 58.7094C96.8603 59.3912 97.8616 60.3799 98.5587 61.5747C99.2558 62.7695 99.6238 64.1277 99.625 65.511V102.489C99.6238 103.872 99.2559 105.23 98.5589 106.425C97.8618 107.62 96.8605 108.609 95.657 109.29L62.8445 127.837C61.671 128.497 60.3467 128.844 59 128.842V128.842ZM27.75 101.578L59 119.241L90.25 101.578V66.4219L59 48.759L27.75 66.4219V101.578Z" fill="#F25C54"/>
</g>
<path d="M37.5635 96.4754C37.5214 96.4039 37.5002 96.3246 37.5 96.2453V72.7546C37.5002 72.6753 37.5214 72.5961 37.5634 72.5246C37.6056 72.4529 37.6679 72.3904 37.7466 72.346C37.7469 72.3458 37.7471 72.3457 37.7474 72.3455L58.7352 60.5683C58.7361 60.5678 58.7369 60.5674 58.7377 60.5669C58.8165 60.5236 58.9068 60.5 59 60.5C59.0932 60.5 59.1835 60.5236 59.2623 60.5669C59.2631 60.5674 59.2639 60.5678 59.2648 60.5683L80.2525 72.3454C80.2529 72.3457 80.2533 72.3459 80.2537 72.3461C80.3322 72.3906 80.3945 72.453 80.4365 72.5246C80.4787 72.5964 80.4999 72.676 80.5 72.7555V96.2447C80.4999 96.3242 80.4787 96.4037 80.4366 96.4754C80.3944 96.5471 80.3321 96.6096 80.2534 96.6541C80.2531 96.6542 80.2529 96.6544 80.2526 96.6545L59.2649 108.432C59.264 108.432 59.2631 108.433 59.2622 108.433C59.1835 108.476 59.0932 108.5 59 108.5C58.9068 108.5 58.8165 108.476 58.7378 108.433C58.7369 108.433 58.736 108.432 58.7351 108.432L37.7475 96.6546C37.6684 96.6101 37.6058 96.5474 37.5635 96.4754Z" fill="#FF9667" stroke="#FCE6B7" stroke-width="7"/>
<defs>
<filter id="filter0_i" x="18.375" y="39.1581" width="81.25" height="93.6837" filterUnits="userSpaceOnUse" color-interpolation-filters="sRGB">
<feFlood flood-opacity="0" result="BackgroundImageFix"/>
<feBlend mode="normal" in="SourceGraphic" in2="BackgroundImageFix" result="shape"/>
<feColorMatrix in="SourceAlpha" type="matrix" values="0 0 0 0 0 0 0 0 0 0 0 0 0 0 0 0 0 0 127 0" result="hardAlpha"/>
<feOffset dy="4"/>
<feGaussianBlur stdDeviation="2"/>
<feComposite in2="hardAlpha" operator="arithmetic" k2="-1" k3="1"/>
<feColorMatrix type="matrix" values="0 0 0 0 1 0 0 0 0 0.588235 0 0 0 0 0.403922 0 0 0 0.5 0"/>
<feBlend mode="normal" in2="shape" result="effect1_innerShadow"/>
</filter>
</defs>
</svg>
