<svg xmlns="http://www.w3.org/2000/svg" viewBox="0 0 1440 320">
  <path fill="#0099ff" fill-opacity="1" d="M0,96L24,90.7C48,85,96,75,144,85.3C192,96,240,128,288,144C336,160,384,160,432,138.7C480,117,528,75,576,74.7C624,75,672,117,720,160C768,203,816,245,864,245.3C912,245,960,203,1008,181.3C1056,160,1104,160,1152,144C1200,128,1248,96,1296,74.7C1344,53,1392,43,1416,37.3L1440,32L1440,320L1416,320C1392,320,1344,320,1296,320C1248,320,1200,320,1152,320C1104,320,1056,320,1008,320C960,320,912,320,864,320C816,320,768,320,720,320C672,320,624,320,576,320C528,320,480,320,432,320C384,320,336,320,288,320C240,320,192,320,144,320C96,320,48,320,24,320L0,320Z"></path>
</svg>