<svg width="30" height="30" viewBox="0 0 30 30" fill="none" xmlns="http://www.w3.org/2000/svg">
<path fill-rule="evenodd" clip-rule="evenodd" d="M2.8125 27.1875C2.06658 27.1875 1.35121 26.8912 0.823762 26.3637C0.296316 25.8363 0 25.1209 0 24.375L0 11.25C0 10.5041 0.296316 9.78871 0.823762 9.26126C1.35121 8.73382 2.06658 8.4375 2.8125 8.4375H27.1875C27.9334 8.4375 28.6488 8.73382 29.1762 9.26126C29.7037 9.78871 30 10.5041 30 11.25V24.375C30 25.1209 29.7037 25.8363 29.1762 26.3637C28.6488 26.8912 27.9334 27.1875 27.1875 27.1875H2.8125ZM12.6844 12.33C12.5425 12.2413 12.3794 12.1922 12.2121 12.1878C12.0448 12.1834 11.8794 12.2239 11.733 12.305C11.5867 12.3861 11.4647 12.505 11.3797 12.6492C11.2948 12.7934 11.25 12.9577 11.25 13.125V22.5C11.25 22.6673 11.2948 22.8316 11.3797 22.9758C11.4647 23.12 11.5867 23.2389 11.733 23.32C11.8794 23.4011 12.0448 23.4416 12.2121 23.4372C12.3794 23.4328 12.5425 23.3837 12.6844 23.295L20.1844 18.6075C20.3192 18.5232 20.4304 18.406 20.5075 18.267C20.5846 18.1279 20.625 17.9715 20.625 17.8125C20.625 17.6535 20.5846 17.4971 20.5075 17.358C20.4304 17.219 20.3192 17.1018 20.1844 17.0175L12.6844 12.33ZM3.75 5.625C3.75 5.87364 3.84877 6.1121 4.02459 6.28791C4.2004 6.46373 4.43886 6.5625 4.6875 6.5625H25.3125C25.5611 6.5625 25.7996 6.46373 25.9754 6.28791C26.1512 6.1121 26.25 5.87364 26.25 5.625C26.25 5.37636 26.1512 5.1379 25.9754 4.96209C25.7996 4.78627 25.5611 4.6875 25.3125 4.6875H4.6875C4.43886 4.6875 4.2004 4.78627 4.02459 4.96209C3.84877 5.1379 3.75 5.37636 3.75 5.625ZM7.5 1.875C7.5 2.12364 7.59877 2.3621 7.77459 2.53791C7.9504 2.71373 8.18886 2.8125 8.4375 2.8125H21.5625C21.8111 2.8125 22.0496 2.71373 22.2254 2.53791C22.4012 2.3621 22.5 2.12364 22.5 1.875C22.5 1.62636 22.4012 1.3879 22.2254 1.21209C22.0496 1.03627 21.8111 0.9375 21.5625 0.9375H8.4375C8.18886 0.9375 7.9504 1.03627 7.77459 1.21209C7.59877 1.3879 7.5 1.62636 7.5 1.875Z" fill="#FDFDFD"/>
</svg>
